<svg xmlns="http://www.w3.org/2000/svg" xmlns:xlink="http://www.w3.org/1999/xlink" viewBox="0 0 32 16.27"><defs><style>.cls-1{fill:none;}.cls-2{clip-path:url(#clip-path);}.cls-3{fill:#f0f;}.cls-4{fill:#ff01fe;}.cls-5{fill:#ff02fd;}.cls-6{fill:#ff03fc;}.cls-7{fill:#ff04fb;}.cls-8{fill:#ff05fa;}.cls-9{fill:#ff06f9;}.cls-10{fill:#ff07f8;}.cls-11{fill:#ff08f8;}.cls-12{fill:#ff09f7;}.cls-13{fill:#ff0af6;}.cls-14{fill:#ff0bf5;}.cls-15{fill:#ff0cf4;}.cls-16{fill:#ff0df3;}.cls-17{fill:#ff0ef2;}.cls-18{fill:#ff0ff1;}.cls-19{fill:#ff10f0;}.cls-20{fill:#ff11ef;}.cls-21{fill:#ff12ee;}.cls-22{fill:#ff13ed;}.cls-23{fill:#ff14ec;}.cls-24{fill:#ff15eb;}.cls-25{fill:#ff16ea;}.cls-26{fill:#ff17e9;}.cls-27{fill:#ff18e9;}.cls-28{fill:#ff19e8;}.cls-29{fill:#ff1ae7;}.cls-30{fill:#ff1be6;}.cls-31{fill:#ff1ce5;}.cls-32{fill:#ff1de4;}.cls-33{fill:#ff1ee3;}.cls-34{fill:#ff1fe2;}.cls-35{fill:#ff20e1;}.cls-36{fill:#ff21e0;}.cls-37{fill:#ff22df;}.cls-38{fill:#ff23de;}.cls-39{fill:#ff24dd;}.cls-40{fill:#ff25dc;}.cls-41{fill:#ff26db;}.cls-42{fill:#ff27da;}.cls-43{fill:#fe28da;}.cls-44{fill:#fe29d9;}.cls-45{fill:#fe2ad8;}.cls-46{fill:#fe2bd7;}.cls-47{fill:#fe2cd6;}.cls-48{fill:#fe2dd5;}.cls-49{fill:#fe2ed4;}.cls-50{fill:#fe2fd3;}.cls-51{fill:#fe30d2;}.cls-52{fill:#fe31d1;}.cls-53{fill:#fe32d0;}.cls-54{fill:#fe33cf;}.cls-55{fill:#fe34ce;}.cls-56{fill:#fe35cd;}.cls-57{fill:#fe36cc;}.cls-58{fill:#fe37cb;}.cls-59{fill:#fe38cb;}.cls-60{fill:#fe39ca;}.cls-61{fill:#fe3ac9;}.cls-62{fill:#fe3bc8;}.cls-63{fill:#fe3cc7;}.cls-64{fill:#fe3dc6;}.cls-65{fill:#fe3ec5;}.cls-66{fill:#fe3fc4;}.cls-67{fill:#fe40c3;}.cls-68{fill:#fe41c2;}.cls-69{fill:#fe42c1;}.cls-70{fill:#fe43c0;}.cls-71{fill:#fe44bf;}.cls-72{fill:#fe45be;}.cls-73{fill:#fe46bd;}.cls-74{fill:#fe47bc;}.cls-75{fill:#fe48bc;}.cls-76{fill:#fe49bb;}.cls-77{fill:#fe4aba;}.cls-78{fill:#fe4bb9;}.cls-79{fill:#fe4cb8;}.cls-80{fill:#fe4db7;}.cls-81{fill:#fe4eb6;}.cls-82{fill:#fe4fb5;}.cls-83{fill:#fe50b4;}.cls-84{fill:#fe51b3;}.cls-85{fill:#fe52b2;}.cls-86{fill:#fe53b1;}.cls-87{fill:#fe54b0;}.cls-88{fill:#fe55af;}.cls-89{fill:#fe56ae;}.cls-90{fill:#fe57ae;}.cls-91{fill:#fe58ad;}.cls-92{fill:#fe59ac;}.cls-93{fill:#fe5aab;}.cls-94{fill:#fe5baa;}.cls-95{fill:#fe5ca9;}.cls-96{fill:#fe5da8;}.cls-97{fill:#fe5ea7;}.cls-98{fill:#fe5fa6;}.cls-99{fill:#fe60a5;}.cls-100{fill:#fe61a4;}.cls-101{fill:#fe62a3;}.cls-102{fill:#fe63a2;}.cls-103{fill:#fe64a1;}.cls-104{fill:#fe65a0;}.cls-105{fill:#fe669f;}.cls-106{fill:#fe679f;}.cls-107{fill:#fe689e;}.cls-108{fill:#fe699d;}.cls-109{fill:#fe6a9c;}.cls-110{fill:#fe6b9b;}.cls-111{fill:#fe6c9a;}.cls-112{fill:#fe6d99;}.cls-113{fill:#fe6e98;}.cls-114{fill:#fe6f97;}.cls-115{fill:#fe7096;}.cls-116{fill:#fe7195;}.cls-117{fill:#fe7294;}.cls-118{fill:#fe7393;}.cls-119{fill:#fe7492;}.cls-120{fill:#fe7591;}.cls-121{fill:#fe7690;}.cls-122{fill:#fd7890;}.cls-123{fill:#fd798f;}.cls-124{fill:#fd7a8e;}.cls-125{fill:#fd7b8d;}.cls-126{fill:#fd7c8c;}.cls-127{fill:#fd7d8b;}.cls-128{fill:#fd7e8a;}.cls-129{fill:#fd7f89;}.cls-130{fill:#fd8088;}.cls-131{fill:#fd8187;}.cls-132{fill:#fd8286;}.cls-133{fill:#fd8385;}.cls-134{fill:#fd8484;}.cls-135{fill:#fd8583;}.cls-136{fill:#fd8682;}.cls-137{fill:#fd8781;}.cls-138{fill:#fd8881;}.cls-139{fill:#fd8980;}.cls-140{fill:#fd8a7f;}.cls-141{fill:#fd8b7e;}.cls-142{fill:#fd8c7d;}.cls-143{fill:#fd8d7c;}.cls-144{fill:#fd8e7b;}.cls-145{fill:#fd8f7a;}.cls-146{fill:#fd9079;}.cls-147{fill:#fd9178;}.cls-148{fill:#fd9277;}.cls-149{fill:#fd9376;}.cls-150{fill:#fd9475;}.cls-151{fill:#fd9574;}.cls-152{fill:#fd9673;}.cls-153{fill:#fd9772;}.cls-154{fill:#fd9872;}.cls-155{fill:#fd9971;}.cls-156{fill:#fd9a70;}.cls-157{fill:#fd9b6f;}.cls-158{fill:#fd9c6e;}.cls-159{fill:#fd9d6d;}.cls-160{fill:#fd9e6c;}.cls-161{fill:#fd9f6b;}.cls-162{fill:#fda06a;}.cls-163{fill:#fda169;}.cls-164{fill:#fda268;}.cls-165{fill:#fda367;}.cls-166{fill:#fda466;}.cls-167{fill:#fda565;}.cls-168{fill:#fda664;}.cls-169{fill:#fda764;}.cls-170{fill:#fda863;}.cls-171{fill:#fda962;}.cls-172{fill:#fdaa61;}.cls-173{fill:#fdab60;}.cls-174{fill:#fdac5f;}.cls-175{fill:#fdad5e;}.cls-176{fill:#fdae5d;}.cls-177{fill:#fdaf5c;}.cls-178{fill:#fdb05b;}.cls-179{fill:#fdb15a;}.cls-180{fill:#fdb259;}.cls-181{fill:#fdb358;}.cls-182{fill:#fdb457;}.cls-183{fill:#fdb556;}.cls-184{fill:#fdb655;}.cls-185{fill:#fdb755;}.cls-186{fill:#fdb854;}.cls-187{fill:#fdb953;}.cls-188{fill:#fdba52;}.cls-189{fill:#fdbb51;}.cls-190{fill:#fdbc50;}.cls-191{fill:#fdbd4f;}.cls-192{fill:#fdbe4e;}.cls-193{fill:#fdbf4d;}.cls-194{fill:#fdc04c;}.cls-195{fill:#fdc14b;}.cls-196{fill:#fdc24a;}.cls-197{fill:#fdc349;}.cls-198{fill:#fdc448;}.cls-199{fill:#fdc547;}.cls-200{fill:#fdc646;}.cls-201{fill:#fcc746;}.cls-202{fill:#fcc845;}.cls-203{fill:#fcc944;}.cls-204{fill:#fcca43;}.cls-205{fill:#fccb42;}.cls-206{fill:#fccc41;}.cls-207{fill:#fccd40;}.cls-208{fill:#fcce3f;}.cls-209{fill:#fccf3e;}.cls-210{fill:#fcd03d;}.cls-211{fill:#fcd13c;}.cls-212{fill:#fcd23b;}.cls-213{fill:#fcd33a;}.cls-214{fill:#fcd439;}.cls-215{fill:#fcd538;}.cls-216{fill:#fcd637;}.cls-217{fill:#fcd737;}.cls-218{fill:#fcd836;}.cls-219{fill:#fcd935;}.cls-220{fill:#fcda34;}.cls-221{fill:#fcdb33;}.cls-222{fill:#fcdc32;}.cls-223{fill:#fcdd31;}.cls-224{fill:#fcde30;}.cls-225{fill:#fcdf2f;}.cls-226{fill:#fce02e;}.cls-227{fill:#fce12d;}.cls-228{fill:#fce22c;}.cls-229{fill:#fce32b;}.cls-230{fill:#fce42a;}.cls-231{fill:#fce529;}.cls-232{fill:#fce628;}.cls-233{fill:#fce728;}.cls-234{fill:#fce827;}.cls-235{fill:#fce926;}.cls-236{fill:#fcea25;}.cls-237{fill:#fceb24;}.cls-238{fill:#fcec23;}.cls-239{fill:#fced22;}.cls-240{fill:#fcee21;}.cls-241{fill:#fbee22;}.cls-242{fill:#faee23;}.cls-243{fill:#f9ee24;}.cls-244{fill:#f8ee25;}.cls-245{fill:#f7ee25;}.cls-246{fill:#f6ee26;}.cls-247{fill:#f5ee27;}.cls-248{fill:#f4ef28;}.cls-249{fill:#f3ef29;}.cls-250{fill:#f2ef2a;}.cls-251{fill:#f1ef2b;}.cls-252{fill:#f0ef2c;}.cls-253{fill:#efef2c;}.cls-254{fill:#eeef2d;}.cls-255{fill:#edef2e;}.cls-256{fill:#ecef2f;}.cls-257{fill:#ebef30;}.cls-258{fill:#eaef31;}.cls-259{fill:#e9ef32;}.cls-260{fill:#e8ef33;}.cls-261{fill:#e7ef34;}.cls-262{fill:#e6ef34;}.cls-263{fill:#e5f035;}.cls-264{fill:#e4f036;}.cls-265{fill:#e3f037;}.cls-266{fill:#e2f038;}.cls-267{fill:#e1f039;}.cls-268{fill:#e0f03a;}.cls-269{fill:#dff03b;}.cls-270{fill:#def03c;}.cls-271{fill:#ddf03c;}.cls-272{fill:#dcf03d;}.cls-273{fill:#dbf03e;}.cls-274{fill:#daf03f;}.cls-275{fill:#d9f040;}.cls-276{fill:#d8f041;}.cls-277{fill:#d7f142;}.cls-278{fill:#d6f143;}.cls-279{fill:#d5f143;}.cls-280{fill:#d4f144;}.cls-281{fill:#d3f145;}.cls-282{fill:#d2f146;}.cls-283{fill:#d1f147;}.cls-284{fill:#d0f148;}.cls-285{fill:#cff149;}.cls-286{fill:#cef14a;}.cls-287{fill:#cdf14b;}.cls-288{fill:#ccf14b;}.cls-289{fill:#cbf14c;}.cls-290{fill:#caf14d;}.cls-291{fill:#c9f14e;}.cls-292{fill:#c8f24f;}.cls-293{fill:#c7f250;}.cls-294{fill:#c6f251;}.cls-295{fill:#c5f252;}.cls-296{fill:#c4f253;}.cls-297{fill:#c3f253;}.cls-298{fill:#c2f254;}.cls-299{fill:#c1f255;}.cls-300{fill:#c0f256;}.cls-301{fill:#bff257;}.cls-302{fill:#bef258;}.cls-303{fill:#bdf259;}.cls-304{fill:#bcf25a;}.cls-305{fill:#bbf25a;}.cls-306{fill:#baf25b;}.cls-307{fill:#b9f35c;}.cls-308{fill:#b8f35d;}.cls-309{fill:#b7f35e;}.cls-310{fill:#b6f35f;}.cls-311{fill:#b5f360;}.cls-312{fill:#b4f361;}.cls-313{fill:#b3f362;}.cls-314{fill:#b2f362;}.cls-315{fill:#b1f363;}.cls-316{fill:#b0f364;}.cls-317{fill:#aff365;}.cls-318{fill:#aef366;}.cls-319{fill:#adf367;}.cls-320{fill:#acf368;}.cls-321{fill:#abf369;}.cls-322{fill:#aaf46a;}.cls-323{fill:#a9f46a;}.cls-324{fill:#a8f46b;}.cls-325{fill:#a7f46c;}.cls-326{fill:#a6f46d;}.cls-327{fill:#a5f46e;}.cls-328{fill:#a4f46f;}.cls-329{fill:#a3f470;}.cls-330{fill:#a2f471;}.cls-331{fill:#a1f471;}.cls-332{fill:#a0f472;}.cls-333{fill:#9ff473;}.cls-334{fill:#9ef474;}.cls-335{fill:#9df475;}.cls-336{fill:#9cf576;}.cls-337{fill:#9bf577;}.cls-338{fill:#9af578;}.cls-339{fill:#99f579;}.cls-340{fill:#98f579;}.cls-341{fill:#97f57a;}.cls-342{fill:#96f57b;}.cls-343{fill:#95f57c;}.cls-344{fill:#94f57d;}.cls-345{fill:#93f57e;}.cls-346{fill:#92f57f;}.cls-347{fill:#91f580;}.cls-348{fill:#90f581;}.cls-349{fill:#8ff581;}.cls-350{fill:#8ef582;}.cls-351{fill:#8df683;}.cls-352{fill:#8cf684;}.cls-353{fill:#8bf685;}.cls-354{fill:#8af686;}.cls-355{fill:#89f687;}.cls-356{fill:#88f688;}.cls-357{fill:#87f688;}.cls-358{fill:#86f689;}.cls-359{fill:#85f68a;}.cls-360{fill:#84f68b;}.cls-361{fill:#83f68c;}.cls-362{fill:#82f68d;}.cls-363{fill:#81f68e;}.cls-364{fill:#80f68f;}.cls-365{fill:#7ff690;}.cls-366{fill:#7df790;}.cls-367{fill:#7cf791;}.cls-368{fill:#7bf792;}.cls-369{fill:#7af793;}.cls-370{fill:#79f794;}.cls-371{fill:#78f795;}.cls-372{fill:#77f796;}.cls-373{fill:#76f797;}.cls-374{fill:#75f798;}.cls-375{fill:#74f798;}.cls-376{fill:#73f799;}.cls-377{fill:#72f79a;}.cls-378{fill:#71f79b;}.cls-379{fill:#70f79c;}.cls-380{fill:#6ff79d;}.cls-381{fill:#6ef89e;}.cls-382{fill:#6df89f;}.cls-383{fill:#6cf89f;}.cls-384{fill:#6bf8a0;}.cls-385{fill:#6af8a1;}.cls-386{fill:#69f8a2;}.cls-387{fill:#68f8a3;}.cls-388{fill:#67f8a4;}.cls-389{fill:#66f8a5;}.cls-390{fill:#65f8a6;}.cls-391{fill:#64f8a7;}.cls-392{fill:#63f8a7;}.cls-393{fill:#62f8a8;}.cls-394{fill:#61f8a9;}.cls-395{fill:#60f8aa;}.cls-396{fill:#5ff9ab;}.cls-397{fill:#5ef9ac;}.cls-398{fill:#5df9ad;}.cls-399{fill:#5cf9ae;}.cls-400{fill:#5bf9af;}.cls-401{fill:#5af9af;}.cls-402{fill:#59f9b0;}.cls-403{fill:#58f9b1;}.cls-404{fill:#57f9b2;}.cls-405{fill:#56f9b3;}.cls-406{fill:#55f9b4;}.cls-407{fill:#54f9b5;}.cls-408{fill:#53f9b6;}.cls-409{fill:#52f9b6;}.cls-410{fill:#51fab7;}.cls-411{fill:#50fab8;}.cls-412{fill:#4ffab9;}.cls-413{fill:#4efaba;}.cls-414{fill:#4dfabb;}.cls-415{fill:#4cfabc;}.cls-416{fill:#4bfabd;}.cls-417{fill:#4afabe;}.cls-418{fill:#49fabe;}.cls-419{fill:#48fabf;}.cls-420{fill:#47fac0;}.cls-421{fill:#46fac1;}.cls-422{fill:#45fac2;}.cls-423{fill:#44fac3;}.cls-424{fill:#43fac4;}.cls-425{fill:#42fbc5;}.cls-426{fill:#41fbc6;}.cls-427{fill:#40fbc6;}.cls-428{fill:#3ffbc7;}.cls-429{fill:#3efbc8;}.cls-430{fill:#3dfbc9;}.cls-431{fill:#3cfbca;}.cls-432{fill:#3bfbcb;}.cls-433{fill:#3afbcc;}.cls-434{fill:#39fbcd;}.cls-435{fill:#38fbcd;}.cls-436{fill:#37fbce;}.cls-437{fill:#36fbcf;}.cls-438{fill:#35fbd0;}.cls-439{fill:#34fbd1;}.cls-440{fill:#33fcd2;}.cls-441{fill:#32fcd3;}.cls-442{fill:#31fcd4;}.cls-443{fill:#30fcd5;}.cls-444{fill:#2ffcd5;}.cls-445{fill:#2efcd6;}.cls-446{fill:#2dfcd7;}.cls-447{fill:#2cfcd8;}.cls-448{fill:#2bfcd9;}.cls-449{fill:#2afcda;}.cls-450{fill:#29fcdb;}.cls-451{fill:#28fcdc;}.cls-452{fill:#27fcdd;}.cls-453{fill:#26fcdd;}.cls-454{fill:#25fcde;}.cls-455{fill:#24fddf;}.cls-456{fill:#23fde0;}.cls-457{fill:#22fde1;}.cls-458{fill:#21fde2;}.cls-459{fill:#20fde3;}.cls-460{fill:#1ffde4;}.cls-461{fill:#1efde4;}.cls-462{fill:#1dfde5;}.cls-463{fill:#1cfde6;}.cls-464{fill:#1bfde7;}.cls-465{fill:#1afde8;}.cls-466{fill:#19fde9;}.cls-467{fill:#18fdea;}.cls-468{fill:#17fdeb;}.cls-469{fill:#16feec;}.cls-470{fill:#15feec;}.cls-471{fill:#14feed;}.cls-472{fill:#13feee;}.cls-473{fill:#12feef;}.cls-474{fill:#11fef0;}.cls-475{fill:#10fef1;}.cls-476{fill:#0ffef2;}.cls-477{fill:#0efef3;}.cls-478{fill:#0dfef4;}.cls-479{fill:#0cfef4;}.cls-480{fill:#0bfef5;}.cls-481{fill:#0afef6;}.cls-482{fill:#09fef7;}.cls-483{fill:#08fef8;}.cls-484{fill:#07fff9;}.cls-485{fill:#06fffa;}.cls-486{fill:#05fffb;}.cls-487{fill:#04fffb;}.cls-488{fill:#03fffc;}.cls-489{fill:#02fffd;}.cls-490{fill:#01fffe;}.cls-491{fill:aqua;}.cls-492{fill:lime;}</style><clipPath id="clip-path"><polygon class="cls-1" points="24.01 8.87 23.13 8.87 22.24 8.87 22.24 8.07 23.13 8.07 23.13 7.28 23.13 6.48 24.01 6.48 24.01 5.68 24.01 4.89 24.9 4.89 24.9 4.09 24.9 3.3 24.9 2.9 31.93 2.9 31.93 0.07 13.44 0.07 13.44 2.9 22.24 2.9 22.24 3.3 22.24 4.09 21.36 4.09 21.36 4.89 20.47 4.89 20.47 5.68 19.59 5.68 19.59 6.48 18.7 6.48 18.7 7.28 17.82 7.28 17.82 8.07 17.82 8.87 18.7 8.87 19.59 8.87 20.47 8.87 21.36 8.87 21.36 9.66 21.36 10.46 20.47 10.46 20.47 11.25 20.47 12.05 19.59 12.05 19.59 12.84 19.59 13.64 18.7 13.64 18.7 14.43 18.7 15.23 18.7 15.41 18.7 16.02 18.7 16.2 19.59 16.2 19.59 16.02 19.59 15.41 19.59 15.23 20.47 15.23 20.47 14.43 21.36 14.43 21.36 13.64 22.24 13.64 22.24 12.84 23.13 12.84 23.13 12.05 24.01 12.05 24.01 11.25 24.9 11.25 24.9 10.46 25.78 10.46 25.78 9.66 25.78 8.87 24.9 8.87 24.01 8.87"/></clipPath></defs><title>favicon</title><g id="Capa_2" data-name="Capa 2"><g id="Capa_1-2" data-name="Capa 1"><g class="cls-2"><polygon class="cls-3" points="13.44 11.13 23.51 16.2 13.44 16.2 13.44 11.13"/><polygon class="cls-3" points="13.44 11.09 23.58 16.2 23.51 16.2 13.44 11.13 13.44 11.09"/><polygon class="cls-4" points="13.44 11.05 23.65 16.2 23.58 16.2 13.44 11.09 13.44 11.05"/><polygon class="cls-5" points="13.44 11.02 23.72 16.2 23.65 16.2 13.44 11.05 13.44 11.02"/><polygon class="cls-6" points="13.44 10.98 23.8 16.2 23.72 16.2 13.44 11.02 13.44 10.98"/><polygon class="cls-7" points="13.44 10.95 23.87 16.2 23.8 16.2 13.44 10.98 13.44 10.95"/><polygon class="cls-8" points="13.44 10.91 23.94 16.2 23.87 16.2 13.44 10.95 13.44 10.91"/><polygon class="cls-9" points="13.44 10.87 24.01 16.2 23.94 16.2 13.44 10.91 13.44 10.87"/><polygon class="cls-10" points="13.44 10.84 24.08 16.2 24.01 16.2 13.44 10.87 13.44 10.84"/><polygon class="cls-11" points="13.44 10.8 24.15 16.2 24.08 16.2 13.44 10.84 13.44 10.8"/><polygon class="cls-12" points="13.44 10.77 24.23 16.2 24.15 16.2 13.44 10.8 13.44 10.77"/><polygon class="cls-13" points="13.44 10.73 24.3 16.2 24.23 16.2 13.44 10.77 13.44 10.73"/><polygon class="cls-14" points="13.44 10.69 24.37 16.2 24.3 16.2 13.44 10.73 13.44 10.69"/><polygon class="cls-15" points="13.44 10.66 24.44 16.2 24.37 16.2 13.44 10.69 13.44 10.66"/><polygon class="cls-16" points="13.44 10.62 24.51 16.2 24.44 16.2 13.44 10.66 13.44 10.62"/><polygon class="cls-17" points="13.44 10.58 24.58 16.2 24.51 16.2 13.44 10.62 13.44 10.58"/><polygon class="cls-18" points="13.44 10.55 24.66 16.2 24.58 16.2 13.44 10.58 13.44 10.55"/><polygon class="cls-19" points="13.44 10.51 24.73 16.2 24.66 16.2 13.44 10.55 13.44 10.51"/><polygon class="cls-20" points="13.44 10.48 24.8 16.2 24.73 16.2 13.44 10.51 13.44 10.48"/><polygon class="cls-21" points="13.44 10.44 24.87 16.2 24.8 16.2 13.44 10.48 13.44 10.44"/><polygon class="cls-22" points="13.44 10.4 24.94 16.2 24.87 16.2 13.44 10.44 13.44 10.4"/><polygon class="cls-23" points="13.44 10.37 25.01 16.2 24.94 16.2 13.44 10.4 13.44 10.37"/><polygon class="cls-24" points="13.44 10.33 25.09 16.2 25.01 16.2 13.44 10.37 13.44 10.33"/><polygon class="cls-25" points="13.44 10.29 25.16 16.2 25.09 16.2 13.44 10.33 13.44 10.29"/><polygon class="cls-26" points="13.44 10.26 25.23 16.2 25.16 16.2 13.44 10.29 13.44 10.26"/><polygon class="cls-27" points="13.44 10.22 25.3 16.2 25.23 16.2 13.44 10.26 13.44 10.22"/><polygon class="cls-28" points="13.44 10.19 25.37 16.2 25.3 16.2 13.44 10.22 13.44 10.19"/><polygon class="cls-29" points="13.44 10.15 25.45 16.2 25.37 16.2 13.44 10.19 13.44 10.15"/><polygon class="cls-30" points="13.44 10.11 25.52 16.2 25.45 16.2 13.44 10.15 13.44 10.11"/><polygon class="cls-31" points="13.44 10.08 25.55 16.18 25.54 16.2 25.52 16.2 13.44 10.11 13.44 10.08"/><polygon class="cls-32" points="13.44 10.04 25.57 16.15 25.55 16.18 13.44 10.08 13.44 10.04"/><polygon class="cls-33" points="13.44 10.01 25.58 16.13 25.57 16.15 13.44 10.04 13.44 10.01"/><polygon class="cls-34" points="13.44 9.97 25.59 16.1 25.58 16.13 13.44 10.01 13.44 9.97"/><polygon class="cls-35" points="13.44 9.93 25.61 16.07 25.59 16.1 13.44 9.97 13.44 9.93"/><polygon class="cls-36" points="13.44 9.9 25.62 16.04 25.61 16.07 13.44 9.93 13.44 9.9"/><polygon class="cls-37" points="13.44 9.86 25.64 16.01 25.62 16.04 13.44 9.9 13.44 9.86"/><polygon class="cls-38" points="13.44 9.82 25.65 15.98 25.64 16.01 13.44 9.86 13.44 9.82"/><polygon class="cls-39" points="13.44 9.79 25.67 15.95 25.65 15.98 13.44 9.82 13.44 9.79"/><polygon class="cls-40" points="13.44 9.75 25.68 15.92 25.67 15.95 13.44 9.79 13.44 9.75"/><polygon class="cls-41" points="13.44 9.72 25.7 15.89 25.68 15.92 13.44 9.75 13.44 9.72"/><polygon class="cls-42" points="13.44 9.68 25.71 15.87 25.7 15.89 13.44 9.72 13.44 9.68"/><polygon class="cls-43" points="13.44 9.64 25.73 15.84 25.71 15.87 13.44 9.68 13.44 9.64"/><polygon class="cls-44" points="13.44 9.61 25.74 15.81 25.73 15.84 13.44 9.64 13.44 9.61"/><polygon class="cls-45" points="13.44 9.57 25.75 15.78 25.74 15.81 13.44 9.61 13.44 9.57"/><polygon class="cls-46" points="13.44 9.54 25.77 15.75 25.75 15.78 13.44 9.57 13.44 9.54"/><polygon class="cls-47" points="13.44 9.5 25.78 15.72 25.77 15.75 13.44 9.54 13.44 9.5"/><polygon class="cls-48" points="13.44 9.46 25.8 15.69 25.78 15.72 13.44 9.5 13.44 9.46"/><polygon class="cls-49" points="13.44 9.43 25.81 15.66 25.8 15.69 13.44 9.46 13.44 9.43"/><polygon class="cls-50" points="13.44 9.39 25.83 15.63 25.81 15.66 13.44 9.43 13.44 9.39"/><polygon class="cls-51" points="13.44 9.36 25.84 15.61 25.83 15.63 13.44 9.39 13.44 9.36"/><polygon class="cls-52" points="13.44 9.32 25.86 15.58 25.84 15.61 13.44 9.36 13.44 9.32"/><polygon class="cls-53" points="13.44 9.28 25.87 15.55 25.86 15.58 13.44 9.32 13.44 9.28"/><polygon class="cls-54" points="13.44 9.25 25.89 15.52 25.87 15.55 13.44 9.28 13.44 9.25"/><polygon class="cls-55" points="13.44 9.21 25.9 15.49 25.89 15.52 13.44 9.25 13.44 9.21"/><polygon class="cls-56" points="13.44 9.18 25.91 15.46 25.9 15.49 13.44 9.21 13.44 9.18"/><polygon class="cls-57" points="13.44 9.14 25.93 15.43 25.91 15.46 13.44 9.18 13.44 9.14"/><polygon class="cls-58" points="13.44 9.1 25.94 15.4 25.93 15.43 13.44 9.14 13.44 9.1"/><polygon class="cls-59" points="13.44 9.07 25.96 15.38 25.94 15.4 13.44 9.1 13.44 9.07"/><polygon class="cls-60" points="13.44 9.03 25.97 15.35 25.96 15.38 13.44 9.07 13.44 9.03"/><polygon class="cls-61" points="13.44 8.99 25.99 15.32 25.97 15.35 13.44 9.03 13.44 8.99"/><polygon class="cls-62" points="13.44 8.96 26 15.29 25.99 15.32 13.44 8.99 13.44 8.96"/><polygon class="cls-63" points="13.44 8.92 26.02 15.26 26 15.29 13.44 8.96 13.44 8.92"/><polygon class="cls-64" points="13.44 8.89 26.03 15.23 26.02 15.26 13.44 8.92 13.44 8.89"/><polygon class="cls-65" points="13.44 8.85 26.05 15.2 26.03 15.23 13.44 8.89 13.44 8.85"/><polygon class="cls-66" points="13.44 8.81 26.06 15.17 26.05 15.2 13.44 8.85 13.44 8.81"/><polygon class="cls-67" points="13.44 8.78 26.07 15.14 26.06 15.17 13.44 8.81 13.44 8.78"/><polygon class="cls-68" points="13.44 8.74 26.09 15.12 26.07 15.14 13.44 8.78 13.44 8.74"/><polygon class="cls-69" points="13.44 8.71 26.1 15.09 26.09 15.12 13.44 8.74 13.44 8.71"/><polygon class="cls-70" points="13.44 8.67 26.12 15.06 26.1 15.09 13.44 8.71 13.44 8.67"/><polygon class="cls-71" points="13.44 8.63 26.13 15.03 26.12 15.06 13.44 8.67 13.44 8.63"/><polygon class="cls-72" points="13.44 8.6 26.15 15 26.13 15.03 13.44 8.63 13.44 8.6"/><polygon class="cls-73" points="13.44 8.56 26.16 14.97 26.15 15 13.44 8.6 13.44 8.56"/><polygon class="cls-74" points="13.44 8.52 26.18 14.94 26.16 14.97 13.44 8.56 13.44 8.52"/><polygon class="cls-75" points="13.44 8.49 26.19 14.91 26.18 14.94 13.44 8.52 13.44 8.49"/><polygon class="cls-76" points="13.44 8.45 26.2 14.89 26.19 14.91 13.44 8.49 13.44 8.45"/><polygon class="cls-77" points="13.44 8.42 26.22 14.86 26.2 14.89 13.44 8.45 13.44 8.42"/><polygon class="cls-78" points="13.44 8.38 26.23 14.83 26.22 14.86 13.44 8.42 13.44 8.38"/><polygon class="cls-79" points="13.44 8.34 26.25 14.8 26.23 14.83 13.44 8.38 13.44 8.34"/><polygon class="cls-80" points="13.44 8.31 26.26 14.77 26.25 14.8 13.44 8.34 13.44 8.31"/><polygon class="cls-81" points="13.44 8.27 26.28 14.74 26.26 14.77 13.44 8.31 13.44 8.27"/><polygon class="cls-82" points="13.44 8.23 26.29 14.71 26.28 14.74 13.44 8.27 13.44 8.23"/><polygon class="cls-83" points="13.44 8.2 26.31 14.68 26.29 14.71 13.44 8.23 13.44 8.2"/><polygon class="cls-84" points="13.44 8.16 26.32 14.65 26.31 14.68 13.44 8.2 13.44 8.16"/><polygon class="cls-85" points="13.44 8.13 26.34 14.63 26.32 14.65 13.44 8.16 13.44 8.13"/><polygon class="cls-86" points="13.44 8.09 26.35 14.6 26.34 14.63 13.44 8.13 13.44 8.09"/><polygon class="cls-87" points="13.44 8.05 26.36 14.57 26.35 14.6 13.44 8.09 13.44 8.05"/><polygon class="cls-88" points="13.44 8.02 26.38 14.54 26.36 14.57 13.44 8.05 13.44 8.02"/><polygon class="cls-89" points="13.44 7.98 26.39 14.51 26.38 14.54 13.44 8.02 13.44 7.98"/><polygon class="cls-90" points="13.44 7.95 26.41 14.48 26.39 14.51 13.44 7.98 13.44 7.95"/><polygon class="cls-91" points="13.44 7.91 26.42 14.45 26.41 14.48 13.44 7.95 13.44 7.91"/><polygon class="cls-92" points="13.44 7.87 26.44 14.43 26.42 14.45 13.44 7.91 13.44 7.87"/><polygon class="cls-93" points="13.44 7.84 26.45 14.4 26.44 14.43 13.44 7.87 13.44 7.84"/><polygon class="cls-94" points="13.44 7.8 26.47 14.37 26.45 14.4 13.44 7.84 13.44 7.8"/><polygon class="cls-95" points="13.44 7.76 26.48 14.34 26.47 14.37 13.44 7.8 13.44 7.76"/><polygon class="cls-96" points="13.44 7.73 26.5 14.31 26.48 14.34 13.44 7.76 13.44 7.73"/><polygon class="cls-97" points="13.44 7.69 26.51 14.28 26.5 14.31 13.44 7.73 13.44 7.69"/><polygon class="cls-98" points="13.44 7.66 26.52 14.25 26.51 14.28 13.44 7.69 13.44 7.66"/><polygon class="cls-99" points="13.44 7.62 26.54 14.22 26.52 14.25 13.44 7.66 13.44 7.62"/><polygon class="cls-100" points="13.44 7.58 26.55 14.19 26.54 14.22 13.44 7.62 13.44 7.58"/><polygon class="cls-101" points="13.44 7.55 26.57 14.16 26.55 14.19 13.44 7.58 13.44 7.55"/><polygon class="cls-102" points="13.44 7.51 26.58 14.14 26.57 14.16 13.44 7.55 13.44 7.51"/><polygon class="cls-103" points="13.44 7.48 26.6 14.11 26.58 14.14 13.44 7.51 13.44 7.48"/><polygon class="cls-104" points="13.44 7.44 26.61 14.08 26.6 14.11 13.44 7.48 13.44 7.44"/><polygon class="cls-105" points="13.44 7.4 26.63 14.05 26.61 14.08 13.44 7.44 13.44 7.4"/><polygon class="cls-106" points="13.44 7.37 26.64 14.02 26.63 14.05 13.44 7.4 13.44 7.37"/><polygon class="cls-107" points="13.44 7.33 26.66 13.99 26.64 14.02 13.44 7.37 13.44 7.33"/><polygon class="cls-108" points="13.44 7.29 26.67 13.96 26.66 13.99 13.44 7.33 13.44 7.29"/><polygon class="cls-109" points="13.44 7.26 26.68 13.94 26.67 13.96 13.44 7.29 13.44 7.26"/><polygon class="cls-110" points="13.44 7.22 26.7 13.91 26.68 13.94 13.44 7.26 13.44 7.22"/><polygon class="cls-111" points="13.44 7.19 26.71 13.88 26.7 13.91 13.44 7.22 13.44 7.19"/><polygon class="cls-112" points="13.44 7.15 26.73 13.85 26.71 13.88 13.44 7.19 13.44 7.15"/><polygon class="cls-113" points="13.44 7.12 26.74 13.82 26.73 13.85 13.44 7.15 13.44 7.12"/><polygon class="cls-114" points="13.44 7.08 26.76 13.79 26.74 13.82 13.44 7.12 13.44 7.08"/><polygon class="cls-115" points="13.44 7.04 26.77 13.76 26.76 13.79 13.44 7.08 13.44 7.04"/><polygon class="cls-116" points="13.44 7.01 26.79 13.73 26.77 13.76 13.44 7.04 13.44 7.01"/><polygon class="cls-117" points="13.44 6.97 26.8 13.7 26.79 13.73 13.44 7.01 13.44 6.97"/><polygon class="cls-118" points="13.44 6.93 26.82 13.68 26.8 13.7 13.44 6.97 13.44 6.93"/><polygon class="cls-119" points="13.44 6.9 26.83 13.65 26.82 13.68 13.44 6.93 13.44 6.9"/><polygon class="cls-120" points="13.44 6.86 26.84 13.62 26.83 13.65 13.44 6.9 13.44 6.86"/><polygon class="cls-121" points="13.44 6.83 26.86 13.59 26.84 13.62 13.44 6.86 13.44 6.83"/><polygon class="cls-122" points="13.44 6.79 26.87 13.56 26.86 13.59 13.44 6.83 13.44 6.79"/><polygon class="cls-123" points="13.44 6.75 26.89 13.53 26.87 13.56 13.44 6.79 13.44 6.75"/><polygon class="cls-124" points="13.44 6.72 26.9 13.5 26.89 13.53 13.44 6.75 13.44 6.72"/><polygon class="cls-125" points="13.44 6.68 26.92 13.47 26.9 13.5 13.44 6.72 13.44 6.68"/><polygon class="cls-126" points="13.44 6.64 26.93 13.45 26.92 13.47 13.44 6.68 13.44 6.64"/><polygon class="cls-127" points="13.44 6.61 26.95 13.42 26.93 13.45 13.44 6.64 13.44 6.61"/><polygon class="cls-128" points="13.44 6.57 26.96 13.39 26.95 13.42 13.44 6.61 13.44 6.57"/><polygon class="cls-129" points="13.44 6.54 26.98 13.36 26.96 13.39 13.44 6.57 13.44 6.54"/><polygon class="cls-130" points="13.44 6.5 26.99 13.33 26.98 13.36 13.44 6.54 13.44 6.5"/><polygon class="cls-131" points="13.44 6.46 27 13.3 26.99 13.33 13.44 6.5 13.44 6.46"/><polygon class="cls-132" points="13.44 6.43 27.02 13.27 27 13.3 13.44 6.46 13.44 6.43"/><polygon class="cls-133" points="13.44 6.39 27.03 13.24 27.02 13.27 13.44 6.43 13.44 6.39"/><polygon class="cls-134" points="13.44 6.36 27.05 13.21 27.03 13.24 13.44 6.39 13.44 6.36"/><polygon class="cls-135" points="13.44 6.32 27.06 13.19 27.05 13.21 13.44 6.36 13.44 6.32"/><polygon class="cls-136" points="13.44 6.28 27.08 13.16 27.06 13.19 13.44 6.32 13.44 6.28"/><polygon class="cls-137" points="13.44 6.25 27.09 13.13 27.08 13.16 13.44 6.28 13.44 6.25"/><polygon class="cls-138" points="13.44 6.21 27.11 13.1 27.09 13.13 13.44 6.25 13.44 6.21"/><polygon class="cls-139" points="13.44 6.17 27.12 13.07 27.11 13.1 13.44 6.21 13.44 6.17"/><polygon class="cls-140" points="13.44 6.14 27.14 13.04 27.12 13.07 13.44 6.17 13.44 6.14"/><polygon class="cls-141" points="13.44 6.1 27.15 13.01 27.14 13.04 13.44 6.14 13.44 6.1"/><polygon class="cls-142" points="13.44 6.07 27.16 12.98 27.15 13.01 13.44 6.1 13.44 6.07"/><polygon class="cls-143" points="13.44 6.03 27.18 12.96 27.16 12.98 13.44 6.07 13.44 6.03"/><polygon class="cls-144" points="13.44 5.99 27.19 12.93 27.18 12.96 13.44 6.03 13.44 5.99"/><polygon class="cls-145" points="13.44 5.96 27.21 12.9 27.19 12.93 13.44 5.99 13.44 5.96"/><polygon class="cls-146" points="13.44 5.92 27.22 12.87 27.21 12.9 13.44 5.96 13.44 5.92"/><polygon class="cls-147" points="13.44 5.89 27.24 12.84 27.22 12.87 13.44 5.92 13.44 5.89"/><polygon class="cls-148" points="13.44 5.85 27.25 12.81 27.24 12.84 13.44 5.89 13.44 5.85"/><polygon class="cls-149" points="13.44 5.81 27.27 12.78 27.25 12.81 13.44 5.85 13.44 5.81"/><polygon class="cls-150" points="13.44 5.78 27.28 12.75 27.27 12.78 13.44 5.81 13.44 5.78"/><polygon class="cls-151" points="13.44 5.74 27.29 12.72 27.28 12.75 13.44 5.78 13.44 5.74"/><polygon class="cls-152" points="13.44 5.71 27.31 12.7 27.29 12.72 13.44 5.74 13.44 5.71"/><polygon class="cls-153" points="13.44 5.67 27.32 12.67 27.31 12.7 13.44 5.71 13.44 5.67"/><polygon class="cls-154" points="13.44 5.63 27.34 12.64 27.32 12.67 13.44 5.67 13.44 5.63"/><polygon class="cls-155" points="13.44 5.6 27.35 12.61 27.34 12.64 13.44 5.63 13.44 5.6"/><polygon class="cls-156" points="13.44 5.56 27.37 12.58 27.35 12.61 13.44 5.6 13.44 5.56"/><polygon class="cls-157" points="13.44 5.52 27.38 12.55 27.37 12.58 13.44 5.56 13.44 5.52"/><polygon class="cls-158" points="13.44 5.49 27.4 12.52 27.38 12.55 13.44 5.52 13.44 5.49"/><polygon class="cls-159" points="13.44 5.45 27.41 12.49 27.4 12.52 13.44 5.49 13.44 5.45"/><polygon class="cls-160" points="13.44 5.42 27.43 12.46 27.41 12.49 13.44 5.45 13.44 5.42"/><polygon class="cls-161" points="13.44 5.38 27.44 12.44 27.43 12.46 13.44 5.42 13.44 5.38"/><polygon class="cls-162" points="13.44 5.34 27.45 12.41 27.44 12.44 13.44 5.38 13.44 5.34"/><polygon class="cls-163" points="13.44 5.31 27.47 12.38 27.45 12.41 13.44 5.34 13.44 5.31"/><polygon class="cls-164" points="13.44 5.27 27.48 12.35 27.47 12.38 13.44 5.31 13.44 5.27"/><polygon class="cls-165" points="13.44 5.24 27.5 12.32 27.48 12.35 13.44 5.27 13.44 5.24"/><polygon class="cls-166" points="13.44 5.2 27.51 12.29 27.5 12.32 13.44 5.24 13.44 5.2"/><polygon class="cls-167" points="13.44 5.16 27.53 12.26 27.51 12.29 13.44 5.2 13.44 5.16"/><polygon class="cls-168" points="13.44 5.13 27.54 12.23 27.53 12.26 13.44 5.16 13.44 5.13"/><polygon class="cls-169" points="13.44 5.09 27.56 12.21 27.54 12.23 13.44 5.13 13.44 5.09"/><polygon class="cls-170" points="13.44 5.05 27.57 12.18 27.56 12.21 13.44 5.09 13.44 5.05"/><polygon class="cls-171" points="13.44 5.02 27.59 12.15 27.57 12.18 13.44 5.05 13.44 5.02"/><polygon class="cls-172" points="13.44 4.98 27.6 12.12 27.59 12.15 13.44 5.02 13.44 4.98"/><polygon class="cls-173" points="13.44 4.95 27.61 12.09 27.6 12.12 13.44 4.98 13.44 4.95"/><polygon class="cls-174" points="13.44 4.91 27.63 12.06 27.61 12.09 13.44 4.95 13.44 4.91"/><polygon class="cls-175" points="13.44 4.87 27.64 12.03 27.63 12.06 13.44 4.91 13.44 4.87"/><polygon class="cls-176" points="13.44 4.84 27.66 12 27.64 12.03 13.44 4.87 13.44 4.84"/><polygon class="cls-177" points="13.44 4.8 27.67 11.97 27.66 12 13.44 4.84 13.44 4.8"/><polygon class="cls-178" points="13.44 4.76 27.69 11.95 27.67 11.97 13.44 4.8 13.44 4.76"/><polygon class="cls-179" points="13.44 4.73 27.7 11.92 27.69 11.95 13.44 4.76 13.44 4.73"/><polygon class="cls-180" points="13.44 4.69 27.72 11.89 27.7 11.92 13.44 4.73 13.44 4.69"/><polygon class="cls-181" points="13.44 4.66 27.73 11.86 27.72 11.89 13.44 4.69 13.44 4.66"/><polygon class="cls-182" points="13.44 4.62 27.75 11.83 27.73 11.86 13.44 4.66 13.44 4.62"/><polygon class="cls-183" points="13.44 4.58 27.76 11.8 27.75 11.83 13.44 4.62 13.44 4.58"/><polygon class="cls-184" points="13.44 4.55 27.77 11.77 27.76 11.8 13.44 4.58 13.44 4.55"/><polygon class="cls-185" points="13.44 4.51 27.79 11.74 27.77 11.77 13.44 4.55 13.44 4.51"/><polygon class="cls-186" points="13.44 4.48 27.8 11.72 27.79 11.74 13.44 4.51 13.44 4.48"/><polygon class="cls-187" points="13.44 4.44 27.82 11.69 27.8 11.72 13.44 4.48 13.44 4.44"/><polygon class="cls-188" points="13.44 4.4 27.83 11.66 27.82 11.69 13.44 4.44 13.44 4.4"/><polygon class="cls-189" points="13.44 4.37 27.85 11.63 27.83 11.66 13.44 4.4 13.44 4.37"/><polygon class="cls-190" points="13.44 4.33 27.86 11.6 27.85 11.63 13.44 4.37 13.44 4.33"/><polygon class="cls-191" points="13.44 4.29 27.88 11.57 27.86 11.6 13.44 4.33 13.44 4.29"/><polygon class="cls-192" points="13.44 4.26 27.89 11.54 27.88 11.57 13.44 4.29 13.44 4.26"/><polygon class="cls-193" points="13.44 4.22 27.91 11.51 27.89 11.54 13.44 4.26 13.44 4.22"/><polygon class="cls-194" points="13.44 4.19 27.92 11.48 27.91 11.51 13.44 4.22 13.44 4.19"/><polygon class="cls-195" points="13.44 4.15 27.93 11.46 27.92 11.48 13.44 4.19 13.44 4.15"/><polygon class="cls-196" points="13.44 4.12 27.95 11.43 27.93 11.46 13.44 4.15 13.44 4.12"/><polygon class="cls-197" points="13.44 4.08 27.96 11.4 27.95 11.43 13.44 4.12 13.44 4.08"/><polygon class="cls-198" points="13.44 4.04 27.98 11.37 27.96 11.4 13.44 4.08 13.44 4.04"/><polygon class="cls-199" points="13.44 4.01 27.99 11.34 27.98 11.37 13.44 4.04 13.44 4.01"/><polygon class="cls-200" points="13.44 3.97 28.01 11.31 27.99 11.34 13.44 4.01 13.44 3.97"/><polygon class="cls-201" points="13.44 3.93 28.02 11.28 28.01 11.31 13.44 3.97 13.44 3.93"/><polygon class="cls-202" points="13.44 3.9 28.04 11.26 28.02 11.28 13.44 3.93 13.44 3.9"/><polygon class="cls-203" points="13.44 3.86 28.05 11.23 28.04 11.26 13.44 3.9 13.44 3.86"/><polygon class="cls-204" points="13.44 3.83 28.06 11.2 28.05 11.23 13.44 3.86 13.44 3.83"/><polygon class="cls-205" points="13.44 3.79 28.08 11.17 28.06 11.2 13.44 3.83 13.44 3.79"/><polygon class="cls-206" points="13.44 3.75 28.09 11.14 28.08 11.17 13.44 3.79 13.44 3.75"/><polygon class="cls-207" points="13.44 3.72 28.11 11.11 28.09 11.14 13.44 3.75 13.44 3.72"/><polygon class="cls-208" points="13.44 3.68 28.12 11.08 28.11 11.11 13.44 3.72 13.44 3.68"/><polygon class="cls-209" points="13.44 3.65 28.14 11.05 28.12 11.08 13.44 3.68 13.44 3.65"/><polygon class="cls-210" points="13.44 3.61 28.15 11.02 28.14 11.05 13.44 3.65 13.44 3.61"/><polygon class="cls-211" points="13.44 3.57 28.17 10.99 28.15 11.02 13.44 3.61 13.44 3.57"/><polygon class="cls-212" points="13.44 3.54 28.18 10.97 28.17 10.99 13.44 3.57 13.44 3.54"/><polygon class="cls-213" points="13.44 3.5 28.2 10.94 28.18 10.97 13.44 3.54 13.44 3.5"/><polygon class="cls-214" points="13.44 3.46 28.21 10.91 28.2 10.94 13.44 3.5 13.44 3.46"/><polygon class="cls-215" points="13.44 3.43 28.22 10.88 28.21 10.91 13.44 3.46 13.44 3.43"/><polygon class="cls-216" points="13.44 3.39 28.24 10.85 28.22 10.88 13.44 3.43 13.44 3.39"/><polygon class="cls-217" points="13.44 3.36 28.25 10.82 28.24 10.85 13.44 3.39 13.44 3.36"/><polygon class="cls-218" points="13.44 3.32 28.27 10.79 28.25 10.82 13.44 3.36 13.44 3.32"/><polygon class="cls-219" points="13.44 3.28 28.28 10.77 28.27 10.79 13.44 3.32 13.44 3.28"/><polygon class="cls-220" points="13.44 3.25 28.3 10.74 28.28 10.77 13.44 3.28 13.44 3.25"/><polygon class="cls-221" points="13.44 3.21 28.31 10.71 28.3 10.74 13.44 3.25 13.44 3.21"/><polygon class="cls-222" points="13.44 3.17 28.33 10.68 28.31 10.71 13.44 3.21 13.44 3.17"/><polygon class="cls-223" points="13.44 3.14 28.34 10.65 28.33 10.68 13.44 3.17 13.44 3.14"/><polygon class="cls-224" points="13.44 3.1 28.36 10.62 28.34 10.65 13.44 3.14 13.44 3.1"/><polygon class="cls-225" points="13.44 3.07 28.37 10.59 28.36 10.62 13.44 3.1 13.44 3.07"/><polygon class="cls-226" points="13.44 3.03 28.38 10.56 28.37 10.59 13.44 3.07 13.44 3.03"/><polygon class="cls-227" points="13.44 2.99 28.4 10.53 28.38 10.56 13.44 3.03 13.44 2.99"/><polygon class="cls-228" points="13.44 2.96 28.41 10.51 28.4 10.53 13.44 2.99 13.44 2.96"/><polygon class="cls-229" points="13.44 2.92 28.43 10.48 28.41 10.51 13.44 2.96 13.44 2.92"/><polygon class="cls-230" points="13.44 2.89 28.44 10.45 28.43 10.48 13.44 2.92 13.44 2.89"/><polygon class="cls-231" points="13.44 2.85 28.46 10.42 28.44 10.45 13.44 2.89 13.44 2.85"/><polygon class="cls-232" points="13.44 2.81 28.47 10.39 28.46 10.42 13.44 2.85 13.44 2.81"/><polygon class="cls-233" points="13.44 2.78 28.49 10.36 28.47 10.39 13.44 2.81 13.44 2.78"/><polygon class="cls-234" points="13.44 2.74 28.5 10.33 28.49 10.36 13.44 2.78 13.44 2.74"/><polygon class="cls-235" points="13.44 2.71 28.52 10.3 28.5 10.33 13.44 2.74 13.44 2.71"/><polygon class="cls-236" points="13.44 2.67 28.53 10.28 28.52 10.3 13.44 2.71 13.44 2.67"/><polygon class="cls-237" points="13.44 2.63 28.54 10.25 28.53 10.28 13.44 2.67 13.44 2.63"/><polygon class="cls-238" points="13.44 2.6 28.56 10.22 28.54 10.25 13.44 2.63 13.44 2.6"/><polygon class="cls-239" points="13.44 2.56 28.57 10.19 28.56 10.22 13.44 2.6 13.44 2.56"/><polygon class="cls-240" points="13.44 2.52 28.59 10.16 28.57 10.19 13.44 2.56 13.44 2.52"/><polygon class="cls-240" points="13.44 2.49 28.6 10.13 28.59 10.16 13.44 2.52 13.44 2.49"/><polygon class="cls-241" points="13.44 2.46 28.61 10.11 28.6 10.13 13.44 2.49 13.44 2.46"/><polygon class="cls-242" points="13.44 2.43 28.63 10.09 28.61 10.11 13.44 2.46 13.44 2.43"/><polygon class="cls-243" points="13.44 2.4 28.64 10.06 28.63 10.09 13.44 2.43 13.44 2.4"/><polygon class="cls-244" points="13.44 2.37 28.65 10.04 28.64 10.06 13.44 2.4 13.44 2.37"/><polygon class="cls-245" points="13.44 2.34 28.66 10.01 28.65 10.04 13.44 2.37 13.44 2.34"/><polygon class="cls-246" points="13.44 2.31 28.68 9.98 28.66 10.01 13.44 2.34 13.44 2.31"/><polygon class="cls-247" points="13.44 2.27 28.69 9.96 28.68 9.98 13.44 2.31 13.44 2.27"/><polygon class="cls-248" points="13.44 2.24 28.7 9.94 28.69 9.96 13.44 2.27 13.44 2.24"/><polygon class="cls-249" points="13.44 2.21 28.71 9.91 28.7 9.94 13.44 2.24 13.44 2.21"/><polygon class="cls-250" points="13.44 2.18 28.73 9.89 28.71 9.91 13.44 2.21 13.44 2.18"/><polygon class="cls-251" points="13.44 2.15 28.74 9.86 28.73 9.89 13.44 2.18 13.44 2.15"/><polygon class="cls-252" points="13.44 2.12 28.75 9.84 28.74 9.86 13.44 2.15 13.44 2.12"/><polygon class="cls-253" points="13.44 2.09 28.76 9.81 28.75 9.84 13.44 2.12 13.44 2.09"/><polygon class="cls-254" points="13.44 2.06 28.78 9.79 28.76 9.81 13.44 2.09 13.44 2.06"/><polygon class="cls-255" points="13.44 2.02 28.79 9.76 28.78 9.79 13.44 2.06 13.44 2.02"/><polygon class="cls-256" points="13.44 1.99 28.8 9.74 28.79 9.76 13.44 2.02 13.44 1.99"/><polygon class="cls-257" points="13.44 1.96 28.81 9.71 28.8 9.74 13.44 1.99 13.44 1.96"/><polygon class="cls-258" points="13.44 1.93 28.83 9.69 28.81 9.71 13.44 1.96 13.44 1.93"/><polygon class="cls-259" points="13.44 1.9 28.84 9.66 28.83 9.69 13.44 1.93 13.44 1.9"/><polygon class="cls-260" points="13.44 1.87 28.85 9.64 28.84 9.66 13.44 1.9 13.44 1.87"/><polygon class="cls-261" points="13.44 1.84 28.86 9.61 28.85 9.64 13.44 1.87 13.44 1.84"/><polygon class="cls-262" points="13.44 1.81 28.88 9.59 28.86 9.61 13.44 1.84 13.44 1.81"/><polygon class="cls-263" points="13.44 1.77 28.89 9.56 28.88 9.59 13.44 1.81 13.44 1.77"/><polygon class="cls-264" points="13.44 1.74 28.9 9.54 28.89 9.56 13.44 1.77 13.44 1.74"/><polygon class="cls-265" points="13.44 1.71 28.91 9.51 28.9 9.54 13.44 1.74 13.44 1.71"/><polygon class="cls-266" points="13.44 1.68 28.93 9.49 28.91 9.51 13.44 1.71 13.44 1.68"/><polygon class="cls-267" points="13.44 1.65 28.94 9.46 28.93 9.49 13.44 1.68 13.44 1.65"/><polygon class="cls-268" points="13.44 1.62 28.95 9.44 28.94 9.46 13.44 1.65 13.44 1.62"/><polygon class="cls-269" points="13.44 1.59 28.96 9.41 28.95 9.44 13.44 1.62 13.44 1.59"/><polygon class="cls-270" points="13.44 1.56 28.98 9.39 28.96 9.41 13.44 1.59 13.44 1.56"/><polygon class="cls-271" points="13.44 1.52 28.99 9.36 28.98 9.39 13.44 1.56 13.44 1.52"/><polygon class="cls-272" points="13.44 1.49 29 9.34 28.99 9.36 13.44 1.52 13.44 1.49"/><polygon class="cls-273" points="13.44 1.46 29.01 9.31 29 9.34 13.44 1.49 13.44 1.46"/><polygon class="cls-274" points="13.44 1.43 29.03 9.29 29.01 9.31 13.44 1.46 13.44 1.43"/><polygon class="cls-275" points="13.44 1.4 29.04 9.26 29.03 9.29 13.44 1.43 13.44 1.4"/><polygon class="cls-276" points="13.44 1.37 29.05 9.24 29.04 9.26 13.44 1.4 13.44 1.37"/><polygon class="cls-277" points="13.44 1.34 29.07 9.21 29.05 9.24 13.44 1.37 13.44 1.34"/><polygon class="cls-278" points="13.44 1.31 29.08 9.19 29.07 9.21 13.44 1.34 13.44 1.31"/><polygon class="cls-279" points="13.44 1.27 29.09 9.16 29.08 9.19 13.44 1.31 13.44 1.27"/><polygon class="cls-280" points="13.44 1.24 29.1 9.14 29.09 9.16 13.44 1.27 13.44 1.24"/><polygon class="cls-281" points="13.44 1.21 29.11 9.11 29.1 9.14 13.44 1.24 13.44 1.21"/><polygon class="cls-282" points="13.44 1.18 29.13 9.09 29.11 9.11 13.44 1.21 13.44 1.18"/><polygon class="cls-283" points="13.44 1.15 29.14 9.06 29.13 9.09 13.44 1.18 13.44 1.15"/><polygon class="cls-284" points="13.44 1.12 29.15 9.04 29.14 9.06 13.44 1.15 13.44 1.12"/><polygon class="cls-285" points="13.44 1.09 29.16 9.01 29.15 9.04 13.44 1.12 13.44 1.09"/><polygon class="cls-286" points="13.44 1.06 29.18 8.99 29.16 9.01 13.44 1.09 13.44 1.06"/><polygon class="cls-287" points="13.44 1.02 29.19 8.96 29.18 8.99 13.44 1.06 13.44 1.02"/><polygon class="cls-288" points="13.44 0.99 29.2 8.94 29.19 8.96 13.44 1.02 13.44 0.99"/><polygon class="cls-289" points="13.44 0.96 29.21 8.91 29.2 8.94 13.44 0.99 13.44 0.96"/><polygon class="cls-290" points="13.44 0.93 29.23 8.89 29.21 8.91 13.44 0.96 13.44 0.93"/><polygon class="cls-291" points="13.44 0.9 29.24 8.86 29.23 8.89 13.44 0.93 13.44 0.9"/><polygon class="cls-292" points="13.44 0.87 29.25 8.84 29.24 8.86 13.44 0.9 13.44 0.87"/><polygon class="cls-293" points="13.44 0.84 29.27 8.81 29.25 8.84 13.44 0.87 13.44 0.84"/><polygon class="cls-294" points="13.44 0.81 29.28 8.79 29.27 8.81 13.44 0.84 13.44 0.81"/><polygon class="cls-295" points="13.44 0.78 29.29 8.77 29.28 8.79 13.44 0.81 13.44 0.78"/><polygon class="cls-296" points="13.44 0.74 29.3 8.74 29.29 8.77 13.44 0.78 13.44 0.74"/><polygon class="cls-297" points="13.44 0.71 29.32 8.71 29.3 8.74 13.44 0.74 13.44 0.71"/><polygon class="cls-298" points="13.44 0.68 29.33 8.69 29.32 8.71 13.44 0.71 13.44 0.68"/><polygon class="cls-299" points="13.44 0.65 29.34 8.66 29.33 8.69 13.44 0.68 13.44 0.65"/><polygon class="cls-300" points="13.44 0.62 29.35 8.64 29.34 8.66 13.44 0.65 13.44 0.62"/><polygon class="cls-301" points="13.44 0.59 29.37 8.62 29.35 8.64 13.44 0.62 13.44 0.59"/><polygon class="cls-302" points="13.44 0.56 29.38 8.59 29.37 8.62 13.44 0.59 13.44 0.56"/><polygon class="cls-303" points="13.44 0.53 29.39 8.56 29.38 8.59 13.44 0.56 13.44 0.53"/><polygon class="cls-304" points="13.44 0.49 29.4 8.54 29.39 8.56 13.44 0.53 13.44 0.49"/><polygon class="cls-305" points="13.44 0.46 29.42 8.52 29.4 8.54 13.44 0.49 13.44 0.46"/><polygon class="cls-306" points="13.44 0.43 29.43 8.49 29.42 8.52 13.44 0.46 13.44 0.43"/><polygon class="cls-307" points="13.44 0.4 29.44 8.47 29.43 8.49 13.44 0.43 13.44 0.4"/><polygon class="cls-308" points="13.44 0.37 29.45 8.44 29.44 8.47 13.44 0.4 13.44 0.37"/><polygon class="cls-309" points="13.44 0.34 29.47 8.42 29.45 8.44 13.44 0.37 13.44 0.34"/><polygon class="cls-310" points="13.44 0.31 29.48 8.39 29.47 8.42 13.44 0.34 13.44 0.31"/><polygon class="cls-311" points="13.44 0.28 29.49 8.37 29.48 8.39 13.44 0.31 13.44 0.28"/><polygon class="cls-312" points="13.44 0.24 29.5 8.34 29.49 8.37 13.44 0.28 13.44 0.24"/><polygon class="cls-313" points="13.44 0.21 29.52 8.32 29.5 8.34 13.44 0.24 13.44 0.21"/><polygon class="cls-314" points="13.44 0.18 29.53 8.29 29.52 8.32 13.44 0.21 13.44 0.18"/><polygon class="cls-315" points="13.44 0.15 29.54 8.27 29.53 8.29 13.44 0.18 13.44 0.15"/><polygon class="cls-316" points="13.44 0.12 29.55 8.24 29.54 8.27 13.44 0.15 13.44 0.12"/><polygon class="cls-317" points="13.44 0.09 29.57 8.22 29.55 8.24 13.44 0.12 13.44 0.09"/><polygon class="cls-318" points="13.47 0.07 29.58 8.19 29.57 8.22 13.44 0.09 13.44 0.07 13.47 0.07"/><polygon class="cls-319" points="13.53 0.07 29.59 8.17 29.58 8.19 13.47 0.07 13.53 0.07"/><polygon class="cls-320" points="13.6 0.07 29.61 8.14 29.59 8.17 13.53 0.07 13.6 0.07"/><polygon class="cls-321" points="13.66 0.07 29.62 8.12 29.61 8.14 13.6 0.07 13.66 0.07"/><polygon class="cls-322" points="13.72 0.07 29.63 8.09 29.62 8.12 13.66 0.07 13.72 0.07"/><polygon class="cls-323" points="13.78 0.07 29.64 8.07 29.63 8.09 13.72 0.07 13.78 0.07"/><polygon class="cls-324" points="13.84 0.07 29.66 8.04 29.64 8.07 13.78 0.07 13.84 0.07"/><polygon class="cls-325" points="13.91 0.07 29.67 8.02 29.66 8.04 13.84 0.07 13.91 0.07"/><polygon class="cls-326" points="13.97 0.07 29.68 7.99 29.67 8.02 13.91 0.07 13.97 0.07"/><polygon class="cls-327" points="14.03 0.07 29.69 7.97 29.68 7.99 13.97 0.07 14.03 0.07"/><polygon class="cls-328" points="14.09 0.07 29.7 7.94 29.69 7.97 14.03 0.07 14.09 0.07"/><polygon class="cls-329" points="14.15 0.07 29.72 7.92 29.7 7.94 14.09 0.07 14.15 0.07"/><polygon class="cls-330" points="14.21 0.07 29.73 7.89 29.72 7.92 14.15 0.07 14.21 0.07"/><polygon class="cls-331" points="14.28 0.07 29.74 7.87 29.73 7.89 14.21 0.07 14.28 0.07"/><polygon class="cls-332" points="14.34 0.07 29.75 7.84 29.74 7.87 14.28 0.07 14.34 0.07"/><polygon class="cls-333" points="14.4 0.07 29.77 7.82 29.75 7.84 14.34 0.07 14.4 0.07"/><polygon class="cls-334" points="14.46 0.07 29.78 7.79 29.77 7.82 14.4 0.07 14.46 0.07"/><polygon class="cls-335" points="14.53 0.07 29.79 7.77 29.78 7.79 14.46 0.07 14.53 0.07"/><polygon class="cls-336" points="14.59 0.07 29.81 7.74 29.79 7.77 14.53 0.07 14.59 0.07"/><polygon class="cls-337" points="14.65 0.07 29.82 7.72 29.81 7.74 14.59 0.07 14.65 0.07"/><polygon class="cls-338" points="14.71 0.07 29.83 7.69 29.82 7.72 14.65 0.07 14.71 0.07"/><polygon class="cls-339" points="14.77 0.07 29.84 7.67 29.83 7.69 14.71 0.07 14.77 0.07"/><polygon class="cls-340" points="14.84 0.07 29.86 7.64 29.84 7.67 14.77 0.07 14.84 0.07"/><polygon class="cls-341" points="14.9 0.07 29.87 7.62 29.86 7.64 14.84 0.07 14.9 0.07"/><polygon class="cls-342" points="14.96 0.07 29.88 7.59 29.87 7.62 14.9 0.07 14.96 0.07"/><polygon class="cls-343" points="15.02 0.07 29.89 7.57 29.88 7.59 14.96 0.07 15.02 0.07"/><polygon class="cls-344" points="15.08 0.07 29.91 7.54 29.89 7.57 15.02 0.07 15.08 0.07"/><polygon class="cls-345" points="15.14 0.07 29.92 7.52 29.91 7.54 15.08 0.07 15.14 0.07"/><polygon class="cls-346" points="15.21 0.07 29.93 7.49 29.92 7.52 15.14 0.07 15.21 0.07"/><polygon class="cls-347" points="15.27 0.07 29.94 7.47 29.93 7.49 15.21 0.07 15.27 0.07"/><polygon class="cls-348" points="15.33 0.07 29.96 7.44 29.94 7.47 15.27 0.07 15.33 0.07"/><polygon class="cls-349" points="15.39 0.07 29.97 7.42 29.96 7.44 15.33 0.07 15.39 0.07"/><polygon class="cls-350" points="15.46 0.07 29.98 7.39 29.97 7.42 15.39 0.07 15.46 0.07"/><polygon class="cls-351" points="15.52 0.07 29.99 7.37 29.98 7.39 15.46 0.07 15.52 0.07"/><polygon class="cls-352" points="15.58 0.07 30.01 7.34 29.99 7.37 15.52 0.07 15.58 0.07"/><polygon class="cls-353" points="15.64 0.07 30.02 7.32 30.01 7.34 15.58 0.07 15.64 0.07"/><polygon class="cls-354" points="15.7 0.07 30.03 7.29 30.02 7.32 15.64 0.07 15.7 0.07"/><polygon class="cls-355" points="15.77 0.07 30.04 7.27 30.03 7.29 15.7 0.07 15.77 0.07"/><polygon class="cls-356" points="15.83 0.07 30.06 7.25 30.04 7.27 15.77 0.07 15.83 0.07"/><polygon class="cls-357" points="15.89 0.07 30.07 7.22 30.06 7.25 15.83 0.07 15.89 0.07"/><polygon class="cls-358" points="15.95 0.07 30.08 7.2 30.07 7.22 15.89 0.07 15.95 0.07"/><polygon class="cls-359" points="16.01 0.07 30.09 7.17 30.08 7.2 15.95 0.07 16.01 0.07"/><polygon class="cls-360" points="16.07 0.07 30.11 7.14 30.09 7.17 16.01 0.07 16.07 0.07"/><polygon class="cls-361" points="16.14 0.07 30.12 7.12 30.11 7.14 16.07 0.07 16.14 0.07"/><polygon class="cls-362" points="16.2 0.07 30.13 7.09 30.12 7.12 16.14 0.07 16.2 0.07"/><polygon class="cls-363" points="16.26 0.07 30.14 7.07 30.13 7.09 16.2 0.07 16.26 0.07"/><polygon class="cls-364" points="16.32 0.07 30.16 7.05 30.14 7.07 16.26 0.07 16.32 0.07"/><polygon class="cls-365" points="16.39 0.07 30.17 7.02 30.16 7.05 16.32 0.07 16.39 0.07"/><polygon class="cls-366" points="16.45 0.07 30.18 7 30.17 7.02 16.39 0.07 16.45 0.07"/><polygon class="cls-367" points="16.51 0.07 30.2 6.97 30.18 7 16.45 0.07 16.51 0.07"/><polygon class="cls-368" points="16.57 0.07 30.21 6.95 30.2 6.97 16.51 0.07 16.57 0.07"/><polygon class="cls-369" points="16.63 0.07 30.22 6.92 30.21 6.95 16.57 0.07 16.63 0.07"/><polygon class="cls-370" points="16.7 0.07 30.23 6.9 30.22 6.92 16.63 0.07 16.7 0.07"/><polygon class="cls-371" points="16.76 0.07 30.25 6.87 30.23 6.9 16.7 0.07 16.76 0.07"/><polygon class="cls-372" points="16.82 0.07 30.26 6.85 30.25 6.87 16.76 0.07 16.82 0.07"/><polygon class="cls-373" points="16.88 0.07 30.27 6.82 30.26 6.85 16.82 0.07 16.88 0.07"/><polygon class="cls-374" points="16.94 0.07 30.28 6.8 30.27 6.82 16.88 0.07 16.94 0.07"/><polygon class="cls-375" points="17 0.07 30.3 6.77 30.28 6.8 16.94 0.07 17 0.07"/><polygon class="cls-376" points="17.07 0.07 30.31 6.75 30.3 6.77 17 0.07 17.07 0.07"/><polygon class="cls-377" points="17.13 0.07 30.32 6.72 30.31 6.75 17.07 0.07 17.13 0.07"/><polygon class="cls-378" points="17.19 0.07 30.33 6.7 30.32 6.72 17.13 0.07 17.19 0.07"/><polygon class="cls-379" points="17.25 0.07 30.35 6.67 30.33 6.7 17.19 0.07 17.25 0.07"/><polygon class="cls-380" points="17.31 0.07 30.36 6.65 30.35 6.67 17.25 0.07 17.31 0.07"/><polygon class="cls-381" points="17.38 0.07 30.37 6.62 30.36 6.65 17.31 0.07 17.38 0.07"/><polygon class="cls-382" points="17.44 0.07 30.38 6.6 30.37 6.62 17.38 0.07 17.44 0.07"/><polygon class="cls-383" points="17.5 0.07 30.4 6.57 30.38 6.6 17.44 0.07 17.5 0.07"/><polygon class="cls-384" points="17.56 0.07 30.41 6.55 30.4 6.57 17.5 0.07 17.56 0.07"/><polygon class="cls-385" points="17.62 0.07 30.42 6.52 30.41 6.55 17.56 0.07 17.62 0.07"/><polygon class="cls-386" points="17.69 0.07 30.43 6.5 30.42 6.52 17.62 0.07 17.69 0.07"/><polygon class="cls-387" points="17.75 0.07 30.45 6.47 30.43 6.5 17.69 0.07 17.75 0.07"/><polygon class="cls-388" points="17.81 0.07 30.46 6.45 30.45 6.47 17.75 0.07 17.81 0.07"/><polygon class="cls-389" points="17.87 0.07 30.47 6.42 30.46 6.45 17.81 0.07 17.87 0.07"/><polygon class="cls-390" points="17.93 0.07 30.48 6.4 30.47 6.42 17.87 0.07 17.93 0.07"/><polygon class="cls-391" points="18 0.07 30.5 6.37 30.48 6.4 17.93 0.07 18 0.07"/><polygon class="cls-392" points="18.06 0.07 30.51 6.35 30.5 6.37 18 0.07 18.06 0.07"/><polygon class="cls-393" points="18.12 0.07 30.52 6.32 30.51 6.35 18.06 0.07 18.12 0.07"/><polygon class="cls-394" points="18.18 0.07 30.53 6.3 30.52 6.32 18.12 0.07 18.18 0.07"/><polygon class="cls-395" points="18.24 0.07 30.55 6.27 30.53 6.3 18.18 0.07 18.24 0.07"/><polygon class="cls-396" points="18.31 0.07 30.56 6.25 30.55 6.27 18.24 0.07 18.31 0.07"/><polygon class="cls-397" points="18.37 0.07 30.57 6.22 30.56 6.25 18.31 0.07 18.37 0.07"/><polygon class="cls-398" points="18.43 0.07 30.58 6.2 30.57 6.22 18.37 0.07 18.43 0.07"/><polygon class="cls-399" points="18.49 0.07 30.6 6.17 30.58 6.2 18.43 0.07 18.49 0.07"/><polygon class="cls-400" points="18.55 0.07 30.61 6.15 30.6 6.17 18.49 0.07 18.55 0.07"/><polygon class="cls-401" points="18.62 0.07 30.62 6.12 30.61 6.15 18.55 0.07 18.62 0.07"/><polygon class="cls-402" points="18.68 0.07 30.64 6.1 30.62 6.12 18.62 0.07 18.68 0.07"/><polygon class="cls-403" points="18.74 0.07 30.65 6.07 30.64 6.1 18.68 0.07 18.74 0.07"/><polygon class="cls-404" points="18.8 0.07 30.66 6.05 30.65 6.07 18.74 0.07 18.8 0.07"/><polygon class="cls-405" points="18.86 0.07 30.67 6.02 30.66 6.05 18.8 0.07 18.86 0.07"/><polygon class="cls-406" points="18.93 0.07 30.68 6 30.67 6.02 18.86 0.07 18.93 0.07"/><polygon class="cls-407" points="18.99 0.07 30.7 5.97 30.68 6 18.93 0.07 18.99 0.07"/><polygon class="cls-408" points="19.05 0.07 30.71 5.95 30.7 5.97 18.99 0.07 19.05 0.07"/><polygon class="cls-409" points="19.11 0.07 30.72 5.92 30.71 5.95 19.05 0.07 19.11 0.07"/><polygon class="cls-410" points="19.17 0.07 30.73 5.9 30.72 5.92 19.11 0.07 19.17 0.07"/><polygon class="cls-411" points="19.24 0.07 30.75 5.88 30.73 5.9 19.17 0.07 19.24 0.07"/><polygon class="cls-412" points="19.3 0.07 30.76 5.85 30.75 5.88 19.24 0.07 19.3 0.07"/><polygon class="cls-413" points="19.36 0.07 30.77 5.83 30.76 5.85 19.3 0.07 19.36 0.07"/><polygon class="cls-414" points="19.42 0.07 30.79 5.8 30.77 5.83 19.36 0.07 19.42 0.07"/><polygon class="cls-415" points="19.48 0.07 30.8 5.78 30.79 5.8 19.42 0.07 19.48 0.07"/><polygon class="cls-416" points="19.55 0.07 30.81 5.75 30.8 5.78 19.48 0.07 19.55 0.07"/><polygon class="cls-417" points="19.61 0.07 30.82 5.72 30.81 5.75 19.55 0.07 19.61 0.07"/><polygon class="cls-418" points="19.67 0.07 30.84 5.7 30.82 5.72 19.61 0.07 19.67 0.07"/><polygon class="cls-419" points="19.73 0.07 30.85 5.67 30.84 5.7 19.67 0.07 19.73 0.07"/><polygon class="cls-420" points="19.79 0.07 30.86 5.65 30.85 5.67 19.73 0.07 19.79 0.07"/><polygon class="cls-421" points="19.86 0.07 30.87 5.63 30.86 5.65 19.79 0.07 19.86 0.07"/><polygon class="cls-422" points="19.92 0.07 30.89 5.6 30.87 5.63 19.86 0.07 19.92 0.07"/><polygon class="cls-423" points="19.98 0.07 30.9 5.58 30.89 5.6 19.92 0.07 19.98 0.07"/><polygon class="cls-424" points="20.04 0.07 30.91 5.55 30.9 5.58 19.98 0.07 20.04 0.07"/><polygon class="cls-425" points="20.1 0.07 30.92 5.53 30.91 5.55 20.04 0.07 20.1 0.07"/><polygon class="cls-426" points="20.16 0.07 30.94 5.5 30.92 5.53 20.1 0.07 20.16 0.07"/><polygon class="cls-427" points="20.23 0.07 30.95 5.48 30.94 5.5 20.16 0.07 20.23 0.07"/><polygon class="cls-428" points="20.29 0.07 30.96 5.45 30.95 5.48 20.23 0.07 20.29 0.07"/><polygon class="cls-429" points="20.35 0.07 30.97 5.43 30.96 5.45 20.29 0.07 20.35 0.07"/><polygon class="cls-430" points="20.41 0.07 30.99 5.4 30.97 5.43 20.35 0.07 20.41 0.07"/><polygon class="cls-431" points="20.48 0.07 31 5.38 30.99 5.4 20.41 0.07 20.48 0.07"/><polygon class="cls-432" points="20.54 0.07 31.01 5.35 31 5.38 20.48 0.07 20.54 0.07"/><polygon class="cls-433" points="20.6 0.07 31.02 5.33 31.01 5.35 20.54 0.07 20.6 0.07"/><polygon class="cls-434" points="20.66 0.07 31.04 5.3 31.02 5.33 20.6 0.07 20.66 0.07"/><polygon class="cls-435" points="20.72 0.07 31.05 5.28 31.04 5.3 20.66 0.07 20.72 0.07"/><polygon class="cls-436" points="20.79 0.07 31.06 5.25 31.05 5.28 20.72 0.07 20.79 0.07"/><polygon class="cls-437" points="20.85 0.07 31.07 5.23 31.06 5.25 20.79 0.07 20.85 0.07"/><polygon class="cls-438" points="20.91 0.07 31.09 5.2 31.07 5.23 20.85 0.07 20.91 0.07"/><polygon class="cls-439" points="20.97 0.07 31.1 5.18 31.09 5.2 20.91 0.07 20.97 0.07"/><polygon class="cls-440" points="21.03 0.07 31.11 5.15 31.1 5.18 20.97 0.07 21.03 0.07"/><polygon class="cls-441" points="21.09 0.07 31.12 5.13 31.11 5.15 21.03 0.07 21.09 0.07"/><polygon class="cls-442" points="21.16 0.07 31.14 5.1 31.12 5.13 21.09 0.07 21.16 0.07"/><polygon class="cls-443" points="21.22 0.07 31.15 5.08 31.14 5.1 21.16 0.07 21.22 0.07"/><polygon class="cls-444" points="21.28 0.07 31.16 5.05 31.15 5.08 21.22 0.07 21.28 0.07"/><polygon class="cls-445" points="21.34 0.07 31.18 5.03 31.16 5.05 21.28 0.07 21.34 0.07"/><polygon class="cls-446" points="21.41 0.07 31.19 5 31.18 5.03 21.34 0.07 21.41 0.07"/><polygon class="cls-447" points="21.47 0.07 31.2 4.98 31.19 5 21.41 0.07 21.47 0.07"/><polygon class="cls-448" points="21.53 0.07 31.21 4.95 31.2 4.98 21.47 0.07 21.53 0.07"/><polygon class="cls-449" points="21.59 0.07 31.23 4.93 31.21 4.95 21.53 0.07 21.59 0.07"/><polygon class="cls-450" points="21.65 0.07 31.24 4.9 31.23 4.93 21.59 0.07 21.65 0.07"/><polygon class="cls-451" points="21.71 0.07 31.25 4.88 31.24 4.9 21.65 0.07 21.71 0.07"/><polygon class="cls-452" points="21.78 0.07 31.26 4.85 31.25 4.88 21.71 0.07 21.78 0.07"/><polygon class="cls-453" points="21.84 0.07 31.27 4.83 31.26 4.85 21.78 0.07 21.84 0.07"/><polygon class="cls-454" points="21.9 0.07 31.29 4.8 31.27 4.83 21.84 0.07 21.9 0.07"/><polygon class="cls-455" points="21.96 0.07 31.3 4.78 31.29 4.8 21.9 0.07 21.96 0.07"/><polygon class="cls-456" points="22.02 0.07 31.31 4.75 31.3 4.78 21.96 0.07 22.02 0.07"/><polygon class="cls-457" points="22.09 0.07 31.32 4.73 31.31 4.75 22.02 0.07 22.09 0.07"/><polygon class="cls-458" points="22.15 0.07 31.34 4.7 31.32 4.73 22.09 0.07 22.15 0.07"/><polygon class="cls-459" points="22.21 0.07 31.35 4.68 31.34 4.7 22.15 0.07 22.21 0.07"/><polygon class="cls-460" points="22.27 0.07 31.36 4.65 31.35 4.68 22.21 0.07 22.27 0.07"/><polygon class="cls-461" points="22.33 0.07 31.38 4.63 31.36 4.65 22.27 0.07 22.33 0.07"/><polygon class="cls-462" points="22.4 0.07 31.39 4.6 31.38 4.63 22.33 0.07 22.4 0.07"/><polygon class="cls-463" points="22.46 0.07 31.4 4.58 31.39 4.6 22.4 0.07 22.46 0.07"/><polygon class="cls-464" points="22.52 0.07 31.41 4.55 31.4 4.58 22.46 0.07 22.52 0.07"/><polygon class="cls-465" points="22.58 0.07 31.43 4.53 31.41 4.55 22.52 0.07 22.58 0.07"/><polygon class="cls-466" points="22.64 0.07 31.44 4.5 31.43 4.53 22.58 0.07 22.64 0.07"/><polygon class="cls-467" points="22.71 0.07 31.45 4.48 31.44 4.5 22.64 0.07 22.71 0.07"/><polygon class="cls-468" points="22.77 0.07 31.46 4.46 31.45 4.48 22.71 0.07 22.77 0.07"/><polygon class="cls-469" points="22.83 0.07 31.48 4.43 31.46 4.46 22.77 0.07 22.83 0.07"/><polygon class="cls-470" points="22.89 0.07 31.49 4.41 31.48 4.43 22.83 0.07 22.89 0.07"/><polygon class="cls-471" points="22.95 0.07 31.5 4.38 31.49 4.41 22.89 0.07 22.95 0.07"/><polygon class="cls-472" points="23.02 0.07 31.51 4.36 31.5 4.38 22.95 0.07 23.02 0.07"/><polygon class="cls-473" points="23.08 0.07 31.53 4.33 31.51 4.36 23.02 0.07 23.08 0.07"/><polygon class="cls-474" points="23.14 0.07 31.54 4.3 31.53 4.33 23.08 0.07 23.14 0.07"/><polygon class="cls-475" points="23.2 0.07 31.55 4.28 31.54 4.3 23.14 0.07 23.2 0.07"/><polygon class="cls-476" points="23.26 0.07 31.56 4.25 31.55 4.28 23.2 0.07 23.26 0.07"/><polygon class="cls-477" points="23.33 0.07 31.58 4.23 31.56 4.25 23.26 0.07 23.33 0.07"/><polygon class="cls-478" points="23.39 0.07 31.59 4.21 31.58 4.23 23.33 0.07 23.39 0.07"/><polygon class="cls-479" points="23.45 0.07 31.6 4.18 31.59 4.21 23.39 0.07 23.45 0.07"/><polygon class="cls-480" points="23.51 0.07 31.61 4.16 31.6 4.18 23.45 0.07 23.51 0.07"/><polygon class="cls-481" points="23.57 0.07 31.63 4.13 31.61 4.16 23.51 0.07 23.57 0.07"/><polygon class="cls-482" points="23.64 0.07 31.64 4.11 31.63 4.13 23.57 0.07 23.64 0.07"/><polygon class="cls-483" points="23.7 0.07 31.65 4.08 31.64 4.11 23.64 0.07 23.7 0.07"/><polygon class="cls-484" points="23.76 0.07 31.66 4.06 31.65 4.08 23.7 0.07 23.76 0.07"/><polygon class="cls-485" points="23.82 0.07 31.68 4.03 31.66 4.06 23.76 0.07 23.82 0.07"/><polygon class="cls-486" points="23.88 0.07 31.69 4.01 31.68 4.03 23.82 0.07 23.88 0.07"/><polygon class="cls-487" points="23.95 0.07 31.7 3.98 31.69 4.01 23.88 0.07 23.95 0.07"/><polygon class="cls-488" points="24.01 0.07 31.71 3.96 31.7 3.98 23.95 0.07 24.01 0.07"/><polygon class="cls-489" points="24.07 0.07 31.73 3.93 31.71 3.96 24.01 0.07 24.07 0.07"/><polygon class="cls-490" points="24.13 0.07 31.74 3.91 31.73 3.93 24.07 0.07 24.13 0.07"/><polygon class="cls-491" points="24.19 0.07 31.75 3.88 31.74 3.91 24.13 0.07 24.19 0.07"/><polygon class="cls-491" points="31.93 3.53 31.75 3.88 24.19 0.07 31.93 0.07 31.93 3.53"/></g><path d="M19.66,16.27h-1v-2.7h.89V12h.88V10.39h.89V8.94H17.75V7.2h.88V6.41h.89v-.8h.88V4.82h.89V4h.88V3h-8.8V0H32V3H25V5h-.89V6.55H23.2V8.14h-.89v.65h3.54v1.74H25v.79h-.89v.8H23.2v.79h-.89v.8h-.88v.79h-.89v.8h-.88Zm-.89-.14h.75v-1h.88v-.8h.89v-.79h.88v-.8h.89V12h.88v-.8h.89v-.79h.88V8.94H22.17V8h.89V6.41h.88V4.82h.89v-2h7V.14H13.51V2.83h8.8V4.16h-.88V5h-.89v.79h-.88v.8h-.89v.8h-.88V8.79h3.54v1.74h-.89v1.59h-.88v1.59h-.89Z"/><path class="cls-492" d="M2.3,16.17v-2H.06v-2H4.55v2h6.72v-6h-9v-2H.06v-4H2.3v-2H13.5v2h2.24v2H11.27v-2H4.55v4h9v2h2.24v6H13.5v2Z"/><path d="M13.57,16.23H2.24v-2H0V12.08H4.61v2H11.2V8.18h-9v-2H0V2H2.24V0H13.57V2h2.24V4.15H11.2v-2H4.61V6h9v2h2.24v6.17H13.57Zm-11.2-.12H13.44v-2h2.24V8.18H13.44v-2h-9V2h6.85V4h4.35V2.14H13.44v-2H2.37v2H.13V6H2.37v2h9v6.17H4.48v-2H.13v1.88H2.37Z"/></g></g></svg>