<svg xmlns="http://www.w3.org/2000/svg" xmlns:xlink="http://www.w3.org/1999/xlink" viewBox="0 0 348.31 128.72"><defs><style>.cls-1{fill:none;}.cls-2{fill:lime;}.cls-3{clip-path:url(#clip-path);}.cls-4{fill:#f0f;}.cls-5{fill:#ff01fe;}.cls-6{fill:#ff02fd;}.cls-7{fill:#ff03fc;}.cls-8{fill:#ff04fb;}.cls-9{fill:#ff05fa;}.cls-10{fill:#ff06f9;}.cls-11{fill:#ff07f8;}.cls-12{fill:#ff08f8;}.cls-13{fill:#ff09f7;}.cls-14{fill:#ff0af6;}.cls-15{fill:#ff0bf5;}.cls-16{fill:#ff0cf4;}.cls-17{fill:#ff0df3;}.cls-18{fill:#ff0ef2;}.cls-19{fill:#ff0ff1;}.cls-20{fill:#ff10f0;}.cls-21{fill:#ff11ef;}.cls-22{fill:#ff12ee;}.cls-23{fill:#ff13ed;}.cls-24{fill:#ff14ec;}.cls-25{fill:#ff15eb;}.cls-26{fill:#ff16ea;}.cls-27{fill:#ff17e9;}.cls-28{fill:#ff18e9;}.cls-29{fill:#ff19e8;}.cls-30{fill:#ff1ae7;}.cls-31{fill:#ff1be6;}.cls-32{fill:#ff1ce5;}.cls-33{fill:#ff1de4;}.cls-34{fill:#ff1ee3;}.cls-35{fill:#ff1fe2;}.cls-36{fill:#ff20e1;}.cls-37{fill:#ff21e0;}.cls-38{fill:#ff22df;}.cls-39{fill:#ff23de;}.cls-40{fill:#ff24dd;}.cls-41{fill:#ff25dc;}.cls-42{fill:#ff26db;}.cls-43{fill:#ff27da;}.cls-44{fill:#fe28da;}.cls-45{fill:#fe29d9;}.cls-46{fill:#fe2ad8;}.cls-47{fill:#fe2bd7;}.cls-48{fill:#fe2cd6;}.cls-49{fill:#fe2dd5;}.cls-50{fill:#fe2ed4;}.cls-51{fill:#fe2fd3;}.cls-52{fill:#fe30d2;}.cls-53{fill:#fe31d1;}.cls-54{fill:#fe32d0;}.cls-55{fill:#fe33cf;}.cls-56{fill:#fe34ce;}.cls-57{fill:#fe35cd;}.cls-58{fill:#fe36cc;}.cls-59{fill:#fe37cb;}.cls-60{fill:#fe38cb;}.cls-61{fill:#fe39ca;}.cls-62{fill:#fe3ac9;}.cls-63{fill:#fe3bc8;}.cls-64{fill:#fe3cc7;}.cls-65{fill:#fe3dc6;}.cls-66{fill:#fe3ec5;}.cls-67{fill:#fe3fc4;}.cls-68{fill:#fe40c3;}.cls-69{fill:#fe41c2;}.cls-70{fill:#fe42c1;}.cls-71{fill:#fe43c0;}.cls-72{fill:#fe44bf;}.cls-73{fill:#fe45be;}.cls-74{fill:#fe46bd;}.cls-75{fill:#fe47bc;}.cls-76{fill:#fe48bc;}.cls-77{fill:#fe49bb;}.cls-78{fill:#fe4aba;}.cls-79{fill:#fe4bb9;}.cls-80{fill:#fe4cb8;}.cls-81{fill:#fe4db7;}.cls-82{fill:#fe4eb6;}.cls-83{fill:#fe4fb5;}.cls-84{fill:#fe50b4;}.cls-85{fill:#fe51b3;}.cls-86{fill:#fe52b2;}.cls-87{fill:#fe53b1;}.cls-88{fill:#fe54b0;}.cls-89{fill:#fe55af;}.cls-90{fill:#fe56ae;}.cls-91{fill:#fe57ae;}.cls-92{fill:#fe58ad;}.cls-93{fill:#fe59ac;}.cls-94{fill:#fe5aab;}.cls-95{fill:#fe5baa;}.cls-96{fill:#fe5ca9;}.cls-97{fill:#fe5da8;}.cls-98{fill:#fe5ea7;}.cls-99{fill:#fe5fa6;}.cls-100{fill:#fe60a5;}.cls-101{fill:#fe61a4;}.cls-102{fill:#fe62a3;}.cls-103{fill:#fe63a2;}.cls-104{fill:#fe64a1;}.cls-105{fill:#fe65a0;}.cls-106{fill:#fe669f;}.cls-107{fill:#fe679f;}.cls-108{fill:#fe689e;}.cls-109{fill:#fe699d;}.cls-110{fill:#fe6a9c;}.cls-111{fill:#fe6b9b;}.cls-112{fill:#fe6c9a;}.cls-113{fill:#fe6d99;}.cls-114{fill:#fe6e98;}.cls-115{fill:#fe6f97;}.cls-116{fill:#fe7096;}.cls-117{fill:#fe7195;}.cls-118{fill:#fe7294;}.cls-119{fill:#fe7393;}.cls-120{fill:#fe7492;}.cls-121{fill:#fe7591;}.cls-122{fill:#fe7690;}.cls-123{fill:#fd7890;}.cls-124{fill:#fd798f;}.cls-125{fill:#fd7a8e;}.cls-126{fill:#fd7b8d;}.cls-127{fill:#fd7c8c;}.cls-128{fill:#fd7d8b;}.cls-129{fill:#fd7e8a;}.cls-130{fill:#fd7f89;}.cls-131{fill:#fd8088;}.cls-132{fill:#fd8187;}.cls-133{fill:#fd8286;}.cls-134{fill:#fd8385;}.cls-135{fill:#fd8484;}.cls-136{fill:#fd8583;}.cls-137{fill:#fd8682;}.cls-138{fill:#fd8781;}.cls-139{fill:#fd8881;}.cls-140{fill:#fd8980;}.cls-141{fill:#fd8a7f;}.cls-142{fill:#fd8b7e;}.cls-143{fill:#fd8c7d;}.cls-144{fill:#fd8d7c;}.cls-145{fill:#fd8e7b;}.cls-146{fill:#fd8f7a;}.cls-147{fill:#fd9079;}.cls-148{fill:#fd9178;}.cls-149{fill:#fd9277;}.cls-150{fill:#fd9376;}.cls-151{fill:#fd9475;}.cls-152{fill:#fd9574;}.cls-153{fill:#fd9673;}.cls-154{fill:#fd9772;}.cls-155{fill:#fd9872;}.cls-156{fill:#fd9971;}.cls-157{fill:#fd9a70;}.cls-158{fill:#fd9b6f;}.cls-159{fill:#fd9c6e;}.cls-160{fill:#fd9d6d;}.cls-161{fill:#fd9e6c;}.cls-162{fill:#fd9f6b;}.cls-163{fill:#fda06a;}.cls-164{fill:#fda169;}.cls-165{fill:#fda268;}.cls-166{fill:#fda367;}.cls-167{fill:#fda466;}.cls-168{fill:#fda565;}.cls-169{fill:#fda664;}.cls-170{fill:#fda764;}.cls-171{fill:#fda863;}.cls-172{fill:#fda962;}.cls-173{fill:#fdaa61;}.cls-174{fill:#fdab60;}.cls-175{fill:#fdac5f;}.cls-176{fill:#fdad5e;}.cls-177{fill:#fdae5d;}.cls-178{fill:#fdaf5c;}.cls-179{fill:#fdb05b;}.cls-180{fill:#fdb15a;}.cls-181{fill:#fdb259;}.cls-182{fill:#fdb358;}.cls-183{fill:#fdb457;}.cls-184{fill:#fdb556;}.cls-185{fill:#fdb655;}.cls-186{fill:#fdb755;}.cls-187{fill:#fdb854;}.cls-188{fill:#fdb953;}.cls-189{fill:#fdba52;}.cls-190{fill:#fdbb51;}.cls-191{fill:#fdbc50;}.cls-192{fill:#fdbd4f;}.cls-193{fill:#fdbe4e;}.cls-194{fill:#fdbf4d;}.cls-195{fill:#fdc04c;}.cls-196{fill:#fdc14b;}.cls-197{fill:#fdc24a;}.cls-198{fill:#fdc349;}.cls-199{fill:#fdc448;}.cls-200{fill:#fdc547;}.cls-201{fill:#fdc646;}.cls-202{fill:#fcc746;}.cls-203{fill:#fcc845;}.cls-204{fill:#fcc944;}.cls-205{fill:#fcca43;}.cls-206{fill:#fccb42;}.cls-207{fill:#fccc41;}.cls-208{fill:#fccd40;}.cls-209{fill:#fcce3f;}.cls-210{fill:#fccf3e;}.cls-211{fill:#fcd03d;}.cls-212{fill:#fcd13c;}.cls-213{fill:#fcd23b;}.cls-214{fill:#fcd33a;}.cls-215{fill:#fcd439;}.cls-216{fill:#fcd538;}.cls-217{fill:#fcd637;}.cls-218{fill:#fcd737;}.cls-219{fill:#fcd836;}.cls-220{fill:#fcd935;}.cls-221{fill:#fcda34;}.cls-222{fill:#fcdb33;}.cls-223{fill:#fcdc32;}.cls-224{fill:#fcdd31;}.cls-225{fill:#fcde30;}.cls-226{fill:#fcdf2f;}.cls-227{fill:#fce02e;}.cls-228{fill:#fce12d;}.cls-229{fill:#fce22c;}.cls-230{fill:#fce32b;}.cls-231{fill:#fce42a;}.cls-232{fill:#fce529;}.cls-233{fill:#fce628;}.cls-234{fill:#fce728;}.cls-235{fill:#fce827;}.cls-236{fill:#fce926;}.cls-237{fill:#fcea25;}.cls-238{fill:#fceb24;}.cls-239{fill:#fcec23;}.cls-240{fill:#fced22;}.cls-241{fill:#fcee21;}.cls-242{fill:#fbee22;}.cls-243{fill:#faee23;}.cls-244{fill:#f9ee24;}.cls-245{fill:#f8ee25;}.cls-246{fill:#f7ee25;}.cls-247{fill:#f6ee26;}.cls-248{fill:#f5ee27;}.cls-249{fill:#f4ef28;}.cls-250{fill:#f3ef29;}.cls-251{fill:#f2ef2a;}.cls-252{fill:#f1ef2b;}.cls-253{fill:#f0ef2c;}.cls-254{fill:#efef2c;}.cls-255{fill:#eeef2d;}.cls-256{fill:#edef2e;}.cls-257{fill:#ecef2f;}.cls-258{fill:#ebef30;}.cls-259{fill:#eaef31;}.cls-260{fill:#e9ef32;}.cls-261{fill:#e8ef33;}.cls-262{fill:#e7ef34;}.cls-263{fill:#e6ef34;}.cls-264{fill:#e5f035;}.cls-265{fill:#e4f036;}.cls-266{fill:#e3f037;}.cls-267{fill:#e2f038;}.cls-268{fill:#e1f039;}.cls-269{fill:#e0f03a;}.cls-270{fill:#dff03b;}.cls-271{fill:#def03c;}.cls-272{fill:#ddf03c;}.cls-273{fill:#dcf03d;}.cls-274{fill:#dbf03e;}.cls-275{fill:#daf03f;}.cls-276{fill:#d9f040;}.cls-277{fill:#d8f041;}.cls-278{fill:#d7f142;}.cls-279{fill:#d6f143;}.cls-280{fill:#d5f143;}.cls-281{fill:#d4f144;}.cls-282{fill:#d3f145;}.cls-283{fill:#d2f146;}.cls-284{fill:#d1f147;}.cls-285{fill:#d0f148;}.cls-286{fill:#cff149;}.cls-287{fill:#cef14a;}.cls-288{fill:#cdf14b;}.cls-289{fill:#ccf14b;}.cls-290{fill:#cbf14c;}.cls-291{fill:#caf14d;}.cls-292{fill:#c9f14e;}.cls-293{fill:#c8f24f;}.cls-294{fill:#c7f250;}.cls-295{fill:#c6f251;}.cls-296{fill:#c5f252;}.cls-297{fill:#c4f253;}.cls-298{fill:#c3f253;}.cls-299{fill:#c2f254;}.cls-300{fill:#c1f255;}.cls-301{fill:#c0f256;}.cls-302{fill:#bff257;}.cls-303{fill:#bef258;}.cls-304{fill:#bdf259;}.cls-305{fill:#bcf25a;}.cls-306{fill:#bbf25a;}.cls-307{fill:#baf25b;}.cls-308{fill:#b9f35c;}.cls-309{fill:#b8f35d;}.cls-310{fill:#b7f35e;}.cls-311{fill:#b6f35f;}.cls-312{fill:#b5f360;}.cls-313{fill:#b4f361;}.cls-314{fill:#b3f362;}.cls-315{fill:#b2f362;}.cls-316{fill:#b1f363;}.cls-317{fill:#b0f364;}.cls-318{fill:#aff365;}.cls-319{fill:#aef366;}.cls-320{fill:#adf367;}.cls-321{fill:#acf368;}.cls-322{fill:#abf369;}.cls-323{fill:#aaf46a;}.cls-324{fill:#a9f46a;}.cls-325{fill:#a8f46b;}.cls-326{fill:#a7f46c;}.cls-327{fill:#a6f46d;}.cls-328{fill:#a5f46e;}.cls-329{fill:#a4f46f;}.cls-330{fill:#a3f470;}.cls-331{fill:#a2f471;}.cls-332{fill:#a1f471;}.cls-333{fill:#a0f472;}.cls-334{fill:#9ff473;}.cls-335{fill:#9ef474;}.cls-336{fill:#9df475;}.cls-337{fill:#9cf576;}.cls-338{fill:#9bf577;}.cls-339{fill:#9af578;}.cls-340{fill:#99f579;}.cls-341{fill:#98f579;}.cls-342{fill:#97f57a;}.cls-343{fill:#96f57b;}.cls-344{fill:#95f57c;}.cls-345{fill:#94f57d;}.cls-346{fill:#93f57e;}.cls-347{fill:#92f57f;}.cls-348{fill:#91f580;}.cls-349{fill:#90f581;}.cls-350{fill:#8ff581;}.cls-351{fill:#8ef582;}.cls-352{fill:#8df683;}.cls-353{fill:#8cf684;}.cls-354{fill:#8bf685;}.cls-355{fill:#8af686;}.cls-356{fill:#89f687;}.cls-357{fill:#88f688;}.cls-358{fill:#87f688;}.cls-359{fill:#86f689;}.cls-360{fill:#85f68a;}.cls-361{fill:#84f68b;}.cls-362{fill:#83f68c;}.cls-363{fill:#82f68d;}.cls-364{fill:#81f68e;}.cls-365{fill:#80f68f;}.cls-366{fill:#7ff690;}.cls-367{fill:#7df790;}.cls-368{fill:#7cf791;}.cls-369{fill:#7bf792;}.cls-370{fill:#7af793;}.cls-371{fill:#79f794;}.cls-372{fill:#78f795;}.cls-373{fill:#77f796;}.cls-374{fill:#76f797;}.cls-375{fill:#75f798;}.cls-376{fill:#74f798;}.cls-377{fill:#73f799;}.cls-378{fill:#72f79a;}.cls-379{fill:#71f79b;}.cls-380{fill:#70f79c;}.cls-381{fill:#6ff79d;}.cls-382{fill:#6ef89e;}.cls-383{fill:#6df89f;}.cls-384{fill:#6cf89f;}.cls-385{fill:#6bf8a0;}.cls-386{fill:#6af8a1;}.cls-387{fill:#69f8a2;}.cls-388{fill:#68f8a3;}.cls-389{fill:#67f8a4;}.cls-390{fill:#66f8a5;}.cls-391{fill:#65f8a6;}.cls-392{fill:#64f8a7;}.cls-393{fill:#63f8a7;}.cls-394{fill:#62f8a8;}.cls-395{fill:#61f8a9;}.cls-396{fill:#60f8aa;}.cls-397{fill:#5ff9ab;}.cls-398{fill:#5ef9ac;}.cls-399{fill:#5df9ad;}.cls-400{fill:#5cf9ae;}.cls-401{fill:#5bf9af;}.cls-402{fill:#5af9af;}.cls-403{fill:#59f9b0;}.cls-404{fill:#58f9b1;}.cls-405{fill:#57f9b2;}.cls-406{fill:#56f9b3;}.cls-407{fill:#55f9b4;}.cls-408{fill:#54f9b5;}.cls-409{fill:#53f9b6;}.cls-410{fill:#52f9b6;}.cls-411{fill:#51fab7;}.cls-412{fill:#50fab8;}.cls-413{fill:#4ffab9;}.cls-414{fill:#4efaba;}.cls-415{fill:#4dfabb;}.cls-416{fill:#4cfabc;}.cls-417{fill:#4bfabd;}.cls-418{fill:#4afabe;}.cls-419{fill:#49fabe;}.cls-420{fill:#48fabf;}.cls-421{fill:#47fac0;}.cls-422{fill:#46fac1;}.cls-423{fill:#45fac2;}.cls-424{fill:#44fac3;}.cls-425{fill:#43fac4;}.cls-426{fill:#42fbc5;}.cls-427{fill:#41fbc6;}.cls-428{fill:#40fbc6;}.cls-429{fill:#3ffbc7;}.cls-430{fill:#3efbc8;}.cls-431{fill:#3dfbc9;}.cls-432{fill:#3cfbca;}.cls-433{fill:#3bfbcb;}.cls-434{fill:#3afbcc;}.cls-435{fill:#39fbcd;}.cls-436{fill:#38fbcd;}.cls-437{fill:#37fbce;}.cls-438{fill:#36fbcf;}.cls-439{fill:#35fbd0;}.cls-440{fill:#34fbd1;}.cls-441{fill:#33fcd2;}.cls-442{fill:#32fcd3;}.cls-443{fill:#31fcd4;}.cls-444{fill:#30fcd5;}.cls-445{fill:#2ffcd5;}.cls-446{fill:#2efcd6;}.cls-447{fill:#2dfcd7;}.cls-448{fill:#2cfcd8;}.cls-449{fill:#2bfcd9;}.cls-450{fill:#2afcda;}.cls-451{fill:#29fcdb;}.cls-452{fill:#28fcdc;}.cls-453{fill:#27fcdd;}.cls-454{fill:#26fcdd;}.cls-455{fill:#25fcde;}.cls-456{fill:#24fddf;}.cls-457{fill:#23fde0;}.cls-458{fill:#22fde1;}.cls-459{fill:#21fde2;}.cls-460{fill:#20fde3;}.cls-461{fill:#1ffde4;}.cls-462{fill:#1efde4;}.cls-463{fill:#1dfde5;}.cls-464{fill:#1cfde6;}.cls-465{fill:#1bfde7;}.cls-466{fill:#1afde8;}.cls-467{fill:#19fde9;}.cls-468{fill:#18fdea;}.cls-469{fill:#17fdeb;}.cls-470{fill:#16feec;}.cls-471{fill:#15feec;}.cls-472{fill:#14feed;}.cls-473{fill:#13feee;}.cls-474{fill:#12feef;}.cls-475{fill:#11fef0;}.cls-476{fill:#10fef1;}.cls-477{fill:#0ffef2;}.cls-478{fill:#0efef3;}.cls-479{fill:#0dfef4;}.cls-480{fill:#0cfef4;}.cls-481{fill:#0bfef5;}.cls-482{fill:#0afef6;}.cls-483{fill:#09fef7;}.cls-484{fill:#08fef8;}.cls-485{fill:#07fff9;}.cls-486{fill:#06fffa;}.cls-487{fill:#05fffb;}.cls-488{fill:#04fffb;}.cls-489{fill:#03fffc;}.cls-490{fill:#02fffd;}.cls-491{fill:#01fffe;}.cls-492{fill:aqua;}</style><clipPath id="clip-path"><polygon class="cls-1" points="317.81 33.2 314.51 33.2 311.22 33.2 311.22 30.24 314.51 30.24 314.51 27.29 314.51 24.33 317.81 24.33 317.81 21.37 317.81 18.41 321.1 18.41 321.1 15.45 321.1 12.49 321.1 11.01 347.25 11.01 347.25 0.49 278.49 0.49 278.49 11.01 311.22 11.01 311.22 12.49 311.22 15.45 307.93 15.45 307.93 18.41 304.64 18.41 304.64 21.37 301.35 21.37 301.35 24.33 298.06 24.33 298.06 27.29 294.76 27.29 294.76 30.24 294.76 33.2 298.06 33.2 301.35 33.2 304.64 33.2 307.93 33.2 307.93 36.16 307.93 39.12 304.64 39.12 304.64 42.08 304.64 45.04 301.35 45.04 301.35 48 301.35 50.95 298.06 50.95 298.06 53.91 298.06 56.87 298.06 57.53 298.06 59.83 298.06 60.49 301.35 60.49 301.35 59.83 301.35 57.53 301.35 56.87 304.64 56.87 304.64 53.91 307.93 53.91 307.93 50.95 311.22 50.95 311.22 48 314.51 48 314.51 45.04 317.81 45.04 317.81 42.08 321.1 42.08 321.1 39.12 324.39 39.12 324.39 36.16 324.39 33.2 321.1 33.2 317.81 33.2"/></clipPath></defs><title>logotipo preferente</title><g id="Capa_2" data-name="Capa 2"><g id="Capa_1-2" data-name="Capa 1"><path class="cls-2" d="M6.58,49.2V43.11H.5V37H12.68v6.08H31V24.85H6.58V18.77H.5V6.58H6.58V.5H37V6.58h6.08v6.09H31V6.58H12.68V18.77H37v6.08h6.08V43.11H37V49.2Z"/><path d="M37.53,49.7H6.08V43.61H0V36.53H13.18v6.08H30.45V25.35H6.08V19.27H0V6.08H6.08V0H37.53V6.08h6.08v7.09H30.45V7.08H13.18V18.27H37.53v6.08h6.08V43.61H37.53Zm-30.45-1H36.53V42.61h6.08V25.35H36.53V19.27H12.18V6.08H31.45v6.09H42.61V7.08H36.53V1H7.08V7.08H1V18.27H7.08v6.08H31.45V43.61H12.18V37.53H1v5.08H7.08Z"/><path class="cls-2" d="M52.25,67.46V18.77H88.79v6.08h6.08V43.11H88.79V49.2H64.44V67.46ZM82.7,43.11V24.85H64.44V43.11Z"/><path d="M64.94,68H51.75V18.27H89.29v6.08h6.08V43.61H89.29V49.7H64.94ZM52.75,67H63.94V48.7H88.29V42.61h6.08V25.35H88.29V19.27H52.75ZM83.2,43.61H63.94V24.35H83.2Zm-18.26-1H82.2V25.35H64.94Z"/><path class="cls-2" d="M110.09,49.2V43.11H104V24.85h6.08V18.77h30.45v6.08h6.08V37H116.19v6.08h24.35V49.2Zm24.37-18.27V24.85H116.19v6.08Z"/><path d="M141,49.7H109.59V43.61h-6.08V24.35h6.08V18.27H141v6.08h6.08V37.53H116.69v5.08H141Zm-30.45-1H140V43.61H115.69V36.53h30.43V25.35H140V19.27H110.59v6.08h-6.08V42.61h6.08ZM135,31.43H115.69V24.35H135Zm-18.27-1H134V25.35H116.69Z"/><path class="cls-2" d="M161.85,49.2V43.11h-6.09V24.85h6.09V18.77h30.44v6.08h6.09V37H168v6.08h24.34V49.2Zm24.36-18.27V24.85H168v6.08Z"/><path d="M192.79,49.7H161.35V43.61h-6.09V24.35h6.09V18.27h31.44v6.08h6.09V37.53H168.45v5.08h24.34Zm-30.44-1h29.44V43.61H167.45V36.53h30.43V25.35h-6.09V19.27H162.35v6.08h-6.09V42.61h6.09Zm24.36-17.27H167.45V24.35h19.26Zm-18.26-1h17.26V25.35H168.45Z"/><path class="cls-2" d="M213.6,49.2V43.11h-6.08V24.85h6.08V18.77H238V.5h12.16V49.2ZM238,43.11V24.85H219.7V43.11Z"/><path d="M250.63,49.7H213.1V43.61H207V24.35h6.08V18.27h24.37V0h13.16Zm-36.53-1h35.53V1H238.47V19.27H214.1v6.08H208V42.61h6.08Zm24.37-5.09H219.2V24.35h19.27Zm-18.27-1h17.27V25.35H220.2Z"/><path class="cls-2" d="M92.1,110V67.34H76.87V61.26h42.62v6.08H104.28V110Z"/><path d="M104.78,110.46H91.6V67.84H76.37V60.76H120v7.08H104.78Zm-12.18-1h11.18V66.84H119V61.76H77.37v5.08H92.6Z"/><path class="cls-2" d="M134.71,128.22v-6.1h24.36V110H134.71v-6.09h-6.08V79.52h12.18v24.35h18.26V79.52h12.17v42.6h-6.08v6.1Z"/><path d="M165.66,128.72H134.21v-7.1h24.36V110.46H134.21v-6.09h-6.08V79h13.18v24.35h17.26V79h13.17v43.6h-6.08Zm-30.45-1h29.45v-6.1h6.08V80H159.57v24.35H140.31V80H129.13v23.35h6.08v6.09h24.36v13.16H135.21Z"/><path class="cls-2" d="M180.38,128.22V79.52h36.53v6.09H223v18.26h-6.08V110H192.56v18.26Zm30.45-24.35V85.61H192.56v18.26Z"/><path d="M193.06,128.72H179.88V79h37.53v6.09h6.08v19.26h-6.08v6.09H193.06Zm-12.18-1h11.18V109.46h24.35v-6.09h6.08V86.11h-6.08V80H180.88Zm30.45-23.35H192.06V85.11h19.27Zm-18.27-1h17.27V86.11H193.06Z"/><path class="cls-2" d="M232.14,73.43V61.26h12.18V73.43Zm0,36.53V79.52h12.18V110Z"/><path d="M244.82,110.46H231.64V79h13.18Zm-12.18-1h11.18V80H232.64Zm12.18-35.53H231.64V60.76h13.18Zm-12.18-1h11.18V61.76H232.64Z"/><path class="cls-2" d="M253.44,110V79.52H290v6.09h6.09V110H283.89V85.61H265.62V110Z"/><path d="M296.56,110.46H283.39V86.11H266.12v24.35H252.94V79h37.53v6.09h6.09Zm-12.17-1h11.17V86.11h-6.09V80H253.94v29.44h11.18V85.11h19.27Z"/><path class="cls-2" d="M311.28,128.22v-6.1h24.37V110H311.28v-6.09H305.2V85.61h6.08V79.52h36.53v42.6h-6.08v6.1Zm24.37-24.35V85.61H317.38v18.26Z"/><path d="M342.23,128.72H310.78v-7.1h24.37V110.46H310.78v-6.09H304.7V85.11h6.08V79h37.53v43.6h-6.08Zm-30.45-1h29.45v-6.1h6.08V80H311.78v6.09H305.7v17.26h6.08v6.09h24.37v13.16H311.78Zm24.37-23.35H316.88V85.11h19.27Zm-18.27-1h17.27V86.11H317.88Z"/><g class="cls-3"><polygon class="cls-4" points="278.49 41.61 315.93 60.49 278.49 60.49 278.49 41.61"/><polygon class="cls-4" points="278.49 41.48 316.2 60.49 315.93 60.49 278.49 41.61 278.49 41.48"/><polygon class="cls-5" points="278.49 41.34 316.46 60.49 316.2 60.49 278.49 41.48 278.49 41.34"/><polygon class="cls-6" points="278.49 41.21 316.73 60.49 316.46 60.49 278.49 41.34 278.49 41.21"/><polygon class="cls-7" points="278.49 41.07 317 60.49 316.73 60.49 278.49 41.21 278.49 41.07"/><polygon class="cls-8" points="278.49 40.94 317.26 60.49 317 60.49 278.49 41.07 278.49 40.94"/><polygon class="cls-9" points="278.49 40.8 317.53 60.49 317.26 60.49 278.49 40.94 278.49 40.8"/><polygon class="cls-10" points="278.49 40.67 317.8 60.49 317.53 60.49 278.49 40.8 278.49 40.67"/><polygon class="cls-11" points="278.49 40.54 318.06 60.49 317.8 60.49 278.49 40.67 278.49 40.54"/><polygon class="cls-12" points="278.49 40.4 318.33 60.49 318.06 60.49 278.49 40.54 278.49 40.4"/><polygon class="cls-13" points="278.49 40.27 318.6 60.49 318.33 60.49 278.49 40.4 278.49 40.27"/><polygon class="cls-14" points="278.49 40.13 318.86 60.49 318.6 60.49 278.49 40.27 278.49 40.13"/><polygon class="cls-15" points="278.49 40 319.13 60.49 318.86 60.49 278.49 40.13 278.49 40"/><polygon class="cls-16" points="278.49 39.86 319.4 60.49 319.13 60.49 278.49 40 278.49 39.86"/><polygon class="cls-17" points="278.49 39.73 319.66 60.49 319.4 60.49 278.49 39.86 278.49 39.73"/><polygon class="cls-18" points="278.49 39.59 319.93 60.49 319.66 60.49 278.49 39.73 278.49 39.59"/><polygon class="cls-19" points="278.49 39.46 320.2 60.49 319.93 60.49 278.49 39.59 278.49 39.46"/><polygon class="cls-20" points="278.49 39.33 320.46 60.49 320.2 60.49 278.49 39.46 278.49 39.33"/><polygon class="cls-21" points="278.49 39.19 320.73 60.49 320.46 60.49 278.49 39.33 278.49 39.19"/><polygon class="cls-22" points="278.49 39.06 321 60.49 320.73 60.49 278.49 39.19 278.49 39.06"/><polygon class="cls-23" points="278.49 38.92 321.26 60.49 321 60.49 278.49 39.06 278.49 38.92"/><polygon class="cls-24" points="278.49 38.79 321.53 60.49 321.26 60.49 278.49 38.92 278.49 38.79"/><polygon class="cls-25" points="278.49 38.65 321.8 60.49 321.53 60.49 278.49 38.79 278.49 38.65"/><polygon class="cls-26" points="278.49 38.52 322.06 60.49 321.8 60.49 278.49 38.65 278.49 38.52"/><polygon class="cls-27" points="278.49 38.38 322.33 60.49 322.06 60.49 278.49 38.52 278.49 38.38"/><polygon class="cls-28" points="278.49 38.25 322.6 60.49 322.33 60.49 278.49 38.38 278.49 38.25"/><polygon class="cls-29" points="278.49 38.12 322.86 60.49 322.6 60.49 278.49 38.25 278.49 38.12"/><polygon class="cls-30" points="278.49 37.98 323.13 60.49 322.86 60.49 278.49 38.12 278.49 37.98"/><polygon class="cls-31" points="278.49 37.85 323.4 60.49 323.13 60.49 278.49 37.98 278.49 37.85"/><polygon class="cls-32" points="278.49 37.71 323.55 60.43 323.52 60.49 323.4 60.49 278.49 37.85 278.49 37.71"/><polygon class="cls-33" points="278.49 37.58 323.6 60.32 323.55 60.43 278.49 37.71 278.49 37.58"/><polygon class="cls-34" points="278.49 37.44 323.66 60.22 323.6 60.32 278.49 37.58 278.49 37.44"/><polygon class="cls-35" points="278.49 37.31 323.71 60.11 323.66 60.22 278.49 37.44 278.49 37.31"/><polygon class="cls-36" points="278.49 37.17 323.76 60 323.71 60.11 278.49 37.31 278.49 37.17"/><polygon class="cls-37" points="278.49 37.04 323.82 59.89 323.76 60 278.49 37.17 278.49 37.04"/><polygon class="cls-38" points="278.49 36.91 323.87 59.79 323.82 59.89 278.49 37.04 278.49 36.91"/><polygon class="cls-39" points="278.49 36.77 323.93 59.68 323.87 59.79 278.49 36.91 278.49 36.77"/><polygon class="cls-40" points="278.49 36.64 323.98 59.57 323.93 59.68 278.49 36.77 278.49 36.64"/><polygon class="cls-41" points="278.49 36.5 324.03 59.47 323.98 59.57 278.49 36.64 278.49 36.5"/><polygon class="cls-42" points="278.49 36.37 324.09 59.36 324.03 59.47 278.49 36.5 278.49 36.37"/><polygon class="cls-43" points="278.49 36.23 324.14 59.25 324.09 59.36 278.49 36.37 278.49 36.23"/><polygon class="cls-44" points="278.49 36.1 324.2 59.14 324.14 59.25 278.49 36.23 278.49 36.1"/><polygon class="cls-45" points="278.49 35.97 324.25 59.04 324.2 59.14 278.49 36.1 278.49 35.97"/><polygon class="cls-46" points="278.49 35.83 324.3 58.93 324.25 59.04 278.49 35.97 278.49 35.83"/><polygon class="cls-47" points="278.49 35.7 324.36 58.82 324.3 58.93 278.49 35.83 278.49 35.7"/><polygon class="cls-48" points="278.49 35.56 324.41 58.71 324.36 58.82 278.49 35.7 278.49 35.56"/><polygon class="cls-49" points="278.49 35.43 324.47 58.61 324.41 58.71 278.49 35.56 278.49 35.43"/><polygon class="cls-50" points="278.49 35.29 324.52 58.5 324.47 58.61 278.49 35.43 278.49 35.29"/><polygon class="cls-51" points="278.49 35.16 324.57 58.39 324.52 58.5 278.49 35.29 278.49 35.16"/><polygon class="cls-52" points="278.49 35.02 324.63 58.28 324.57 58.39 278.49 35.16 278.49 35.02"/><polygon class="cls-53" points="278.49 34.89 324.68 58.18 324.63 58.28 278.49 35.02 278.49 34.89"/><polygon class="cls-54" points="278.49 34.76 324.74 58.07 324.68 58.18 278.49 34.89 278.49 34.76"/><polygon class="cls-55" points="278.49 34.62 324.79 57.96 324.74 58.07 278.49 34.76 278.49 34.62"/><polygon class="cls-56" points="278.49 34.49 324.84 57.86 324.79 57.96 278.49 34.62 278.49 34.49"/><polygon class="cls-57" points="278.49 34.35 324.9 57.75 324.84 57.86 278.49 34.49 278.49 34.35"/><polygon class="cls-58" points="278.49 34.22 324.95 57.64 324.9 57.75 278.49 34.35 278.49 34.22"/><polygon class="cls-59" points="278.49 34.08 325.01 57.53 324.95 57.64 278.49 34.22 278.49 34.08"/><polygon class="cls-60" points="278.49 33.95 325.06 57.43 325.01 57.53 278.49 34.08 278.49 33.95"/><polygon class="cls-61" points="278.49 33.81 325.12 57.32 325.06 57.43 278.49 33.95 278.49 33.81"/><polygon class="cls-62" points="278.49 33.68 325.17 57.21 325.12 57.32 278.49 33.81 278.49 33.68"/><polygon class="cls-63" points="278.49 33.55 325.22 57.11 325.17 57.21 278.49 33.68 278.49 33.55"/><polygon class="cls-64" points="278.49 33.41 325.28 57 325.22 57.11 278.49 33.55 278.49 33.41"/><polygon class="cls-65" points="278.49 33.28 325.33 56.89 325.28 57 278.49 33.41 278.49 33.28"/><polygon class="cls-66" points="278.49 33.14 325.38 56.78 325.33 56.89 278.49 33.28 278.49 33.14"/><polygon class="cls-67" points="278.49 33.01 325.44 56.68 325.38 56.78 278.49 33.14 278.49 33.01"/><polygon class="cls-68" points="278.49 32.87 325.49 56.57 325.44 56.68 278.49 33.01 278.49 32.87"/><polygon class="cls-69" points="278.49 32.74 325.55 56.46 325.49 56.57 278.49 32.87 278.49 32.74"/><polygon class="cls-70" points="278.49 32.6 325.6 56.36 325.55 56.46 278.49 32.74 278.49 32.6"/><polygon class="cls-71" points="278.49 32.47 325.65 56.25 325.6 56.36 278.49 32.6 278.49 32.47"/><polygon class="cls-72" points="278.49 32.34 325.71 56.14 325.65 56.25 278.49 32.47 278.49 32.34"/><polygon class="cls-73" points="278.49 32.2 325.76 56.03 325.71 56.14 278.49 32.34 278.49 32.2"/><polygon class="cls-74" points="278.49 32.07 325.82 55.93 325.76 56.03 278.49 32.2 278.49 32.07"/><polygon class="cls-75" points="278.49 31.93 325.87 55.82 325.82 55.93 278.49 32.07 278.49 31.93"/><polygon class="cls-76" points="278.49 31.8 325.93 55.71 325.87 55.82 278.49 31.93 278.49 31.8"/><polygon class="cls-77" points="278.49 31.66 325.98 55.61 325.93 55.71 278.49 31.8 278.49 31.66"/><polygon class="cls-78" points="278.49 31.53 326.03 55.5 325.98 55.61 278.49 31.66 278.49 31.53"/><polygon class="cls-79" points="278.49 31.39 326.09 55.39 326.03 55.5 278.49 31.53 278.49 31.39"/><polygon class="cls-80" points="278.49 31.26 326.14 55.28 326.09 55.39 278.49 31.39 278.49 31.26"/><polygon class="cls-81" points="278.49 31.13 326.19 55.18 326.14 55.28 278.49 31.26 278.49 31.13"/><polygon class="cls-82" points="278.49 30.99 326.25 55.07 326.19 55.18 278.49 31.13 278.49 30.99"/><polygon class="cls-83" points="278.49 30.86 326.3 54.96 326.25 55.07 278.49 30.99 278.49 30.86"/><polygon class="cls-84" points="278.49 30.72 326.36 54.85 326.3 54.96 278.49 30.86 278.49 30.72"/><polygon class="cls-85" points="278.49 30.59 326.41 54.75 326.36 54.85 278.49 30.72 278.49 30.59"/><polygon class="cls-86" points="278.49 30.45 326.47 54.64 326.41 54.75 278.49 30.59 278.49 30.45"/><polygon class="cls-87" points="278.49 30.32 326.52 54.53 326.47 54.64 278.49 30.45 278.49 30.32"/><polygon class="cls-88" points="278.49 30.18 326.57 54.43 326.52 54.53 278.49 30.32 278.49 30.18"/><polygon class="cls-89" points="278.49 30.05 326.63 54.32 326.57 54.43 278.49 30.18 278.49 30.05"/><polygon class="cls-90" points="278.49 29.92 326.68 54.21 326.63 54.32 278.49 30.05 278.49 29.92"/><polygon class="cls-91" points="278.49 29.78 326.74 54.1 326.68 54.21 278.49 29.92 278.49 29.78"/><polygon class="cls-92" points="278.49 29.65 326.79 54 326.74 54.1 278.49 29.78 278.49 29.65"/><polygon class="cls-93" points="278.49 29.51 326.84 53.89 326.79 54 278.49 29.65 278.49 29.51"/><polygon class="cls-94" points="278.49 29.38 326.9 53.78 326.84 53.89 278.49 29.51 278.49 29.38"/><polygon class="cls-95" points="278.49 29.24 326.95 53.68 326.9 53.78 278.49 29.38 278.49 29.24"/><polygon class="cls-96" points="278.49 29.11 327.01 53.57 326.95 53.68 278.49 29.24 278.49 29.11"/><polygon class="cls-97" points="278.49 28.98 327.06 53.46 327.01 53.57 278.49 29.11 278.49 28.98"/><polygon class="cls-98" points="278.49 28.84 327.11 53.35 327.06 53.46 278.49 28.98 278.49 28.84"/><polygon class="cls-99" points="278.49 28.71 327.17 53.25 327.11 53.35 278.49 28.84 278.49 28.71"/><polygon class="cls-100" points="278.49 28.57 327.22 53.14 327.17 53.25 278.49 28.71 278.49 28.57"/><polygon class="cls-101" points="278.49 28.44 327.28 53.03 327.22 53.14 278.49 28.57 278.49 28.44"/><polygon class="cls-102" points="278.49 28.3 327.33 52.93 327.28 53.03 278.49 28.44 278.49 28.3"/><polygon class="cls-103" points="278.49 28.17 327.38 52.82 327.33 52.93 278.49 28.3 278.49 28.17"/><polygon class="cls-104" points="278.49 28.03 327.44 52.71 327.38 52.82 278.49 28.17 278.49 28.03"/><polygon class="cls-105" points="278.49 27.9 327.49 52.6 327.44 52.71 278.49 28.03 278.49 27.9"/><polygon class="cls-106" points="278.49 27.77 327.55 52.5 327.49 52.6 278.49 27.9 278.49 27.77"/><polygon class="cls-107" points="278.49 27.63 327.6 52.39 327.55 52.5 278.49 27.77 278.49 27.63"/><polygon class="cls-108" points="278.49 27.5 327.65 52.28 327.6 52.39 278.49 27.63 278.49 27.5"/><polygon class="cls-109" points="278.49 27.36 327.71 52.18 327.65 52.28 278.49 27.5 278.49 27.36"/><polygon class="cls-110" points="278.49 27.23 327.76 52.07 327.71 52.18 278.49 27.36 278.49 27.23"/><polygon class="cls-111" points="278.49 27.09 327.82 51.96 327.76 52.07 278.49 27.23 278.49 27.09"/><polygon class="cls-112" points="278.49 26.96 327.87 51.85 327.82 51.96 278.49 27.09 278.49 26.96"/><polygon class="cls-113" points="278.49 26.82 327.93 51.75 327.87 51.85 278.49 26.96 278.49 26.82"/><polygon class="cls-114" points="278.49 26.69 327.98 51.64 327.93 51.75 278.49 26.82 278.49 26.69"/><polygon class="cls-115" points="278.49 26.55 328.03 51.53 327.98 51.64 278.49 26.69 278.49 26.55"/><polygon class="cls-116" points="278.49 26.42 328.09 51.42 328.03 51.53 278.49 26.55 278.49 26.42"/><polygon class="cls-117" points="278.49 26.29 328.14 51.32 328.09 51.42 278.49 26.42 278.49 26.29"/><polygon class="cls-118" points="278.49 26.15 328.19 51.21 328.14 51.32 278.49 26.29 278.49 26.15"/><polygon class="cls-119" points="278.49 26.02 328.25 51.1 328.19 51.21 278.49 26.15 278.49 26.02"/><polygon class="cls-120" points="278.49 25.88 328.3 51 328.25 51.1 278.49 26.02 278.49 25.88"/><polygon class="cls-121" points="278.49 25.75 328.36 50.89 328.3 51 278.49 25.88 278.49 25.75"/><polygon class="cls-122" points="278.49 25.61 328.41 50.78 328.36 50.89 278.49 25.75 278.49 25.61"/><polygon class="cls-123" points="278.49 25.48 328.46 50.67 328.41 50.78 278.49 25.61 278.49 25.48"/><polygon class="cls-124" points="278.49 25.34 328.52 50.57 328.46 50.67 278.49 25.48 278.49 25.34"/><polygon class="cls-125" points="278.49 25.21 328.57 50.46 328.52 50.57 278.49 25.34 278.49 25.21"/><polygon class="cls-126" points="278.49 25.08 328.63 50.35 328.57 50.46 278.49 25.21 278.49 25.08"/><polygon class="cls-127" points="278.49 24.94 328.68 50.25 328.63 50.35 278.49 25.08 278.49 24.94"/><polygon class="cls-128" points="278.49 24.81 328.74 50.14 328.68 50.25 278.49 24.94 278.49 24.81"/><polygon class="cls-129" points="278.49 24.67 328.79 50.03 328.74 50.14 278.49 24.81 278.49 24.67"/><polygon class="cls-130" points="278.49 24.54 328.84 49.92 328.79 50.03 278.49 24.67 278.49 24.54"/><polygon class="cls-131" points="278.49 24.4 328.9 49.82 328.84 49.92 278.49 24.54 278.49 24.4"/><polygon class="cls-132" points="278.49 24.27 328.95 49.71 328.9 49.82 278.49 24.4 278.49 24.27"/><polygon class="cls-133" points="278.49 24.14 329 49.6 328.95 49.71 278.49 24.27 278.49 24.14"/><polygon class="cls-134" points="278.49 24 329.06 49.5 329 49.6 278.49 24.14 278.49 24"/><polygon class="cls-135" points="278.49 23.87 329.11 49.39 329.06 49.5 278.49 24 278.49 23.87"/><polygon class="cls-136" points="278.49 23.73 329.17 49.28 329.11 49.39 278.49 23.87 278.49 23.73"/><polygon class="cls-137" points="278.49 23.6 329.22 49.17 329.17 49.28 278.49 23.73 278.49 23.6"/><polygon class="cls-138" points="278.49 23.46 329.27 49.07 329.22 49.17 278.49 23.6 278.49 23.46"/><polygon class="cls-139" points="278.49 23.33 329.33 48.96 329.27 49.07 278.49 23.46 278.49 23.33"/><polygon class="cls-140" points="278.49 23.19 329.38 48.85 329.33 48.96 278.49 23.33 278.49 23.19"/><polygon class="cls-141" points="278.49 23.06 329.44 48.75 329.38 48.85 278.49 23.19 278.49 23.06"/><polygon class="cls-142" points="278.49 22.93 329.49 48.64 329.44 48.75 278.49 23.06 278.49 22.93"/><polygon class="cls-143" points="278.49 22.79 329.55 48.53 329.49 48.64 278.49 22.93 278.49 22.79"/><polygon class="cls-144" points="278.49 22.66 329.6 48.42 329.55 48.53 278.49 22.79 278.49 22.66"/><polygon class="cls-145" points="278.49 22.52 329.65 48.32 329.6 48.42 278.49 22.66 278.49 22.52"/><polygon class="cls-146" points="278.49 22.39 329.71 48.21 329.65 48.32 278.49 22.52 278.49 22.39"/><polygon class="cls-147" points="278.49 22.25 329.76 48.1 329.71 48.21 278.49 22.39 278.49 22.25"/><polygon class="cls-148" points="278.49 22.12 329.82 47.99 329.76 48.1 278.49 22.25 278.49 22.12"/><polygon class="cls-149" points="278.49 21.98 329.87 47.89 329.82 47.99 278.49 22.12 278.49 21.98"/><polygon class="cls-150" points="278.49 21.85 329.92 47.78 329.87 47.89 278.49 21.98 278.49 21.85"/><polygon class="cls-151" points="278.49 21.72 329.98 47.67 329.92 47.78 278.49 21.85 278.49 21.72"/><polygon class="cls-152" points="278.49 21.58 330.03 47.57 329.98 47.67 278.49 21.72 278.49 21.58"/><polygon class="cls-153" points="278.49 21.45 330.09 47.46 330.03 47.57 278.49 21.58 278.49 21.45"/><polygon class="cls-154" points="278.49 21.31 330.14 47.35 330.09 47.46 278.49 21.45 278.49 21.31"/><polygon class="cls-155" points="278.49 21.18 330.19 47.24 330.14 47.35 278.49 21.31 278.49 21.18"/><polygon class="cls-156" points="278.49 21.04 330.25 47.14 330.19 47.24 278.49 21.18 278.49 21.04"/><polygon class="cls-157" points="278.49 20.91 330.3 47.03 330.25 47.14 278.49 21.04 278.49 20.91"/><polygon class="cls-158" points="278.49 20.77 330.36 46.92 330.3 47.03 278.49 20.91 278.49 20.77"/><polygon class="cls-159" points="278.49 20.64 330.41 46.82 330.36 46.92 278.49 20.77 278.49 20.64"/><polygon class="cls-160" points="278.49 20.51 330.46 46.71 330.41 46.82 278.49 20.64 278.49 20.51"/><polygon class="cls-161" points="278.49 20.37 330.52 46.6 330.46 46.71 278.49 20.51 278.49 20.37"/><polygon class="cls-162" points="278.49 20.24 330.57 46.49 330.52 46.6 278.49 20.37 278.49 20.24"/><polygon class="cls-163" points="278.49 20.1 330.63 46.39 330.57 46.49 278.49 20.24 278.49 20.1"/><polygon class="cls-164" points="278.49 19.97 330.68 46.28 330.63 46.39 278.49 20.1 278.49 19.97"/><polygon class="cls-165" points="278.49 19.83 330.73 46.17 330.68 46.28 278.49 19.97 278.49 19.83"/><polygon class="cls-166" points="278.49 19.7 330.79 46.07 330.73 46.17 278.49 19.83 278.49 19.7"/><polygon class="cls-167" points="278.49 19.57 330.84 45.96 330.79 46.07 278.49 19.7 278.49 19.57"/><polygon class="cls-168" points="278.49 19.43 330.9 45.85 330.84 45.96 278.49 19.57 278.49 19.43"/><polygon class="cls-169" points="278.49 19.3 330.95 45.74 330.9 45.85 278.49 19.43 278.49 19.3"/><polygon class="cls-170" points="278.49 19.16 331 45.64 330.95 45.74 278.49 19.3 278.49 19.16"/><polygon class="cls-171" points="278.49 19.03 331.06 45.53 331 45.64 278.49 19.16 278.49 19.03"/><polygon class="cls-172" points="278.49 18.89 331.11 45.42 331.06 45.53 278.49 19.03 278.49 18.89"/><polygon class="cls-173" points="278.49 18.76 331.17 45.32 331.11 45.42 278.49 18.89 278.49 18.76"/><polygon class="cls-174" points="278.49 18.62 331.22 45.21 331.17 45.32 278.49 18.76 278.49 18.62"/><polygon class="cls-175" points="278.49 18.49 331.27 45.1 331.22 45.21 278.49 18.62 278.49 18.49"/><polygon class="cls-176" points="278.49 18.36 331.33 44.99 331.27 45.1 278.49 18.49 278.49 18.36"/><polygon class="cls-177" points="278.49 18.22 331.38 44.89 331.33 44.99 278.49 18.36 278.49 18.22"/><polygon class="cls-178" points="278.49 18.09 331.44 44.78 331.38 44.89 278.49 18.22 278.49 18.09"/><polygon class="cls-179" points="278.49 17.95 331.49 44.67 331.44 44.78 278.49 18.09 278.49 17.95"/><polygon class="cls-180" points="278.49 17.82 331.55 44.56 331.49 44.67 278.49 17.95 278.49 17.82"/><polygon class="cls-181" points="278.49 17.68 331.6 44.46 331.55 44.56 278.49 17.82 278.49 17.68"/><polygon class="cls-182" points="278.49 17.55 331.65 44.35 331.6 44.46 278.49 17.68 278.49 17.55"/><polygon class="cls-183" points="278.49 17.41 331.71 44.24 331.65 44.35 278.49 17.55 278.49 17.41"/><polygon class="cls-184" points="278.49 17.28 331.76 44.14 331.71 44.24 278.49 17.41 278.49 17.28"/><polygon class="cls-185" points="278.49 17.14 331.81 44.03 331.76 44.14 278.49 17.28 278.49 17.14"/><polygon class="cls-186" points="278.49 17.01 331.87 43.92 331.81 44.03 278.49 17.14 278.49 17.01"/><polygon class="cls-187" points="278.49 16.88 331.92 43.81 331.87 43.92 278.49 17.01 278.49 16.88"/><polygon class="cls-188" points="278.49 16.74 331.98 43.71 331.92 43.81 278.49 16.88 278.49 16.74"/><polygon class="cls-189" points="278.49 16.61 332.03 43.6 331.98 43.71 278.49 16.74 278.49 16.61"/><polygon class="cls-190" points="278.49 16.47 332.08 43.49 332.03 43.6 278.49 16.61 278.49 16.47"/><polygon class="cls-191" points="278.49 16.34 332.14 43.39 332.08 43.49 278.49 16.47 278.49 16.34"/><polygon class="cls-192" points="278.49 16.2 332.19 43.28 332.14 43.39 278.49 16.34 278.49 16.2"/><polygon class="cls-193" points="278.49 16.07 332.25 43.17 332.19 43.28 278.49 16.2 278.49 16.07"/><polygon class="cls-194" points="278.49 15.94 332.3 43.06 332.25 43.17 278.49 16.07 278.49 15.94"/><polygon class="cls-195" points="278.49 15.8 332.36 42.96 332.3 43.06 278.49 15.94 278.49 15.8"/><polygon class="cls-196" points="278.49 15.67 332.41 42.85 332.36 42.96 278.49 15.8 278.49 15.67"/><polygon class="cls-197" points="278.49 15.53 332.46 42.74 332.41 42.85 278.49 15.67 278.49 15.53"/><polygon class="cls-198" points="278.49 15.4 332.52 42.64 332.46 42.74 278.49 15.53 278.49 15.4"/><polygon class="cls-199" points="278.49 15.26 332.57 42.53 332.52 42.64 278.49 15.4 278.49 15.26"/><polygon class="cls-200" points="278.49 15.13 332.63 42.42 332.57 42.53 278.49 15.26 278.49 15.13"/><polygon class="cls-201" points="278.49 14.99 332.68 42.31 332.63 42.42 278.49 15.13 278.49 14.99"/><polygon class="cls-202" points="278.49 14.86 332.73 42.21 332.68 42.31 278.49 14.99 278.49 14.86"/><polygon class="cls-203" points="278.49 14.72 332.79 42.1 332.73 42.21 278.49 14.86 278.49 14.72"/><polygon class="cls-204" points="278.49 14.59 332.84 41.99 332.79 42.1 278.49 14.72 278.49 14.59"/><polygon class="cls-205" points="278.49 14.46 332.9 41.88 332.84 41.99 278.49 14.59 278.49 14.46"/><polygon class="cls-206" points="278.49 14.32 332.95 41.78 332.9 41.88 278.49 14.46 278.49 14.32"/><polygon class="cls-207" points="278.49 14.19 333 41.67 332.95 41.78 278.49 14.32 278.49 14.19"/><polygon class="cls-208" points="278.49 14.05 333.06 41.56 333 41.67 278.49 14.19 278.49 14.05"/><polygon class="cls-209" points="278.49 13.92 333.11 41.46 333.06 41.56 278.49 14.05 278.49 13.92"/><polygon class="cls-210" points="278.49 13.78 333.17 41.35 333.11 41.46 278.49 13.92 278.49 13.78"/><polygon class="cls-211" points="278.49 13.65 333.22 41.24 333.17 41.35 278.49 13.78 278.49 13.65"/><polygon class="cls-212" points="278.49 13.52 333.27 41.13 333.22 41.24 278.49 13.65 278.49 13.52"/><polygon class="cls-213" points="278.49 13.38 333.33 41.03 333.27 41.13 278.49 13.52 278.49 13.38"/><polygon class="cls-214" points="278.49 13.25 333.38 40.92 333.33 41.03 278.49 13.38 278.49 13.25"/><polygon class="cls-215" points="278.49 13.11 333.44 40.81 333.38 40.92 278.49 13.25 278.49 13.11"/><polygon class="cls-216" points="278.49 12.98 333.49 40.71 333.44 40.81 278.49 13.11 278.49 12.98"/><polygon class="cls-217" points="278.49 12.84 333.54 40.6 333.49 40.71 278.49 12.98 278.49 12.84"/><polygon class="cls-218" points="278.49 12.71 333.6 40.49 333.54 40.6 278.49 12.84 278.49 12.71"/><polygon class="cls-219" points="278.49 12.57 333.65 40.38 333.6 40.49 278.49 12.71 278.49 12.57"/><polygon class="cls-220" points="278.49 12.44 333.71 40.28 333.65 40.38 278.49 12.57 278.49 12.44"/><polygon class="cls-221" points="278.49 12.3 333.76 40.17 333.71 40.28 278.49 12.44 278.49 12.3"/><polygon class="cls-222" points="278.49 12.17 333.81 40.06 333.76 40.17 278.49 12.3 278.49 12.17"/><polygon class="cls-223" points="278.49 12.04 333.87 39.96 333.81 40.06 278.49 12.17 278.49 12.04"/><polygon class="cls-224" points="278.49 11.9 333.92 39.85 333.87 39.96 278.49 12.04 278.49 11.9"/><polygon class="cls-225" points="278.49 11.77 333.98 39.74 333.92 39.85 278.49 11.9 278.49 11.77"/><polygon class="cls-226" points="278.49 11.63 334.03 39.63 333.98 39.74 278.49 11.77 278.49 11.63"/><polygon class="cls-227" points="278.49 11.5 334.08 39.53 334.03 39.63 278.49 11.63 278.49 11.5"/><polygon class="cls-228" points="278.49 11.36 334.14 39.42 334.08 39.53 278.49 11.5 278.49 11.36"/><polygon class="cls-229" points="278.49 11.23 334.19 39.31 334.14 39.42 278.49 11.36 278.49 11.23"/><polygon class="cls-230" points="278.49 11.1 334.25 39.21 334.19 39.31 278.49 11.23 278.49 11.1"/><polygon class="cls-231" points="278.49 10.96 334.3 39.1 334.25 39.21 278.49 11.1 278.49 10.96"/><polygon class="cls-232" points="278.49 10.83 334.36 38.99 334.3 39.1 278.49 10.96 278.49 10.83"/><polygon class="cls-233" points="278.49 10.69 334.41 38.88 334.36 38.99 278.49 10.83 278.49 10.69"/><polygon class="cls-234" points="278.49 10.56 334.46 38.78 334.41 38.88 278.49 10.69 278.49 10.56"/><polygon class="cls-235" points="278.49 10.42 334.52 38.67 334.46 38.78 278.49 10.56 278.49 10.42"/><polygon class="cls-236" points="278.49 10.29 334.57 38.56 334.52 38.67 278.49 10.42 278.49 10.29"/><polygon class="cls-237" points="278.49 10.15 334.63 38.45 334.57 38.56 278.49 10.29 278.49 10.15"/><polygon class="cls-238" points="278.49 10.02 334.68 38.35 334.63 38.45 278.49 10.15 278.49 10.02"/><polygon class="cls-239" points="278.49 9.89 334.73 38.24 334.68 38.35 278.49 10.02 278.49 9.89"/><polygon class="cls-240" points="278.49 9.75 334.79 38.13 334.73 38.24 278.49 9.89 278.49 9.75"/><polygon class="cls-241" points="278.49 9.62 334.84 38.03 334.79 38.13 278.49 9.75 278.49 9.62"/><polygon class="cls-241" points="278.49 9.5 334.89 37.93 334.84 38.03 278.49 9.62 278.49 9.5"/><polygon class="cls-242" points="278.49 9.38 334.94 37.84 334.89 37.93 278.49 9.5 278.49 9.38"/><polygon class="cls-243" points="278.49 9.27 334.98 37.75 334.94 37.84 278.49 9.38 278.49 9.27"/><polygon class="cls-244" points="278.49 9.15 335.03 37.66 334.98 37.75 278.49 9.27 278.49 9.15"/><polygon class="cls-245" points="278.49 9.04 335.07 37.56 335.03 37.66 278.49 9.15 278.49 9.04"/><polygon class="cls-246" points="278.49 8.92 335.12 37.47 335.07 37.56 278.49 9.04 278.49 8.92"/><polygon class="cls-247" points="278.49 8.8 335.17 37.38 335.12 37.47 278.49 8.92 278.49 8.8"/><polygon class="cls-248" points="278.49 8.69 335.21 37.28 335.17 37.38 278.49 8.8 278.49 8.69"/><polygon class="cls-249" points="278.49 8.57 335.26 37.19 335.21 37.28 278.49 8.69 278.49 8.57"/><polygon class="cls-250" points="278.49 8.46 335.31 37.1 335.26 37.19 278.49 8.57 278.49 8.46"/><polygon class="cls-251" points="278.49 8.34 335.36 37.01 335.31 37.1 278.49 8.46 278.49 8.34"/><polygon class="cls-252" points="278.49 8.22 335.4 36.91 335.36 37.01 278.49 8.34 278.49 8.22"/><polygon class="cls-253" points="278.49 8.11 335.45 36.82 335.4 36.91 278.49 8.22 278.49 8.11"/><polygon class="cls-254" points="278.49 7.99 335.5 36.73 335.45 36.82 278.49 8.11 278.49 7.99"/><polygon class="cls-255" points="278.49 7.87 335.54 36.64 335.5 36.73 278.49 7.99 278.49 7.87"/><polygon class="cls-256" points="278.49 7.76 335.59 36.54 335.54 36.64 278.49 7.87 278.49 7.76"/><polygon class="cls-257" points="278.49 7.64 335.63 36.45 335.59 36.54 278.49 7.76 278.49 7.64"/><polygon class="cls-258" points="278.49 7.53 335.68 36.36 335.63 36.45 278.49 7.64 278.49 7.53"/><polygon class="cls-259" points="278.49 7.41 335.73 36.27 335.68 36.36 278.49 7.53 278.49 7.41"/><polygon class="cls-260" points="278.49 7.29 335.78 36.17 335.73 36.27 278.49 7.41 278.49 7.29"/><polygon class="cls-261" points="278.49 7.18 335.82 36.08 335.78 36.17 278.49 7.29 278.49 7.18"/><polygon class="cls-262" points="278.49 7.06 335.87 35.99 335.82 36.08 278.49 7.18 278.49 7.06"/><polygon class="cls-263" points="278.49 6.94 335.92 35.9 335.87 35.99 278.49 7.06 278.49 6.94"/><polygon class="cls-264" points="278.49 6.83 335.96 35.8 335.92 35.9 278.49 6.94 278.49 6.83"/><polygon class="cls-265" points="278.49 6.71 336.01 35.71 335.96 35.8 278.49 6.83 278.49 6.71"/><polygon class="cls-266" points="278.49 6.59 336.06 35.62 336.01 35.71 278.49 6.71 278.49 6.59"/><polygon class="cls-267" points="278.49 6.48 336.1 35.52 336.06 35.62 278.49 6.59 278.49 6.48"/><polygon class="cls-268" points="278.49 6.36 336.15 35.43 336.1 35.52 278.49 6.48 278.49 6.36"/><polygon class="cls-269" points="278.49 6.25 336.2 35.34 336.15 35.43 278.49 6.36 278.49 6.25"/><polygon class="cls-270" points="278.49 6.13 336.24 35.25 336.2 35.34 278.49 6.25 278.49 6.13"/><polygon class="cls-271" points="278.49 6.01 336.29 35.15 336.24 35.25 278.49 6.13 278.49 6.01"/><polygon class="cls-272" points="278.49 5.9 336.34 35.06 336.29 35.15 278.49 6.01 278.49 5.9"/><polygon class="cls-273" points="278.49 5.78 336.38 34.97 336.34 35.06 278.49 5.9 278.49 5.78"/><polygon class="cls-274" points="278.49 5.67 336.43 34.88 336.38 34.97 278.49 5.78 278.49 5.67"/><polygon class="cls-275" points="278.49 5.55 336.48 34.78 336.43 34.88 278.49 5.67 278.49 5.55"/><polygon class="cls-276" points="278.49 5.43 336.52 34.69 336.48 34.78 278.49 5.55 278.49 5.43"/><polygon class="cls-277" points="278.49 5.32 336.57 34.6 336.52 34.69 278.49 5.43 278.49 5.32"/><polygon class="cls-278" points="278.49 5.2 336.62 34.51 336.57 34.6 278.49 5.32 278.49 5.2"/><polygon class="cls-279" points="278.49 5.08 336.66 34.41 336.62 34.51 278.49 5.2 278.49 5.08"/><polygon class="cls-280" points="278.49 4.97 336.71 34.32 336.66 34.41 278.49 5.08 278.49 4.97"/><polygon class="cls-281" points="278.49 4.85 336.76 34.23 336.71 34.32 278.49 4.97 278.49 4.85"/><polygon class="cls-282" points="278.49 4.74 336.8 34.13 336.76 34.23 278.49 4.85 278.49 4.74"/><polygon class="cls-283" points="278.49 4.62 336.85 34.04 336.8 34.13 278.49 4.74 278.49 4.62"/><polygon class="cls-284" points="278.49 4.5 336.9 33.95 336.85 34.04 278.49 4.62 278.49 4.5"/><polygon class="cls-285" points="278.49 4.39 336.94 33.86 336.9 33.95 278.49 4.5 278.49 4.39"/><polygon class="cls-286" points="278.49 4.27 336.99 33.76 336.94 33.86 278.49 4.39 278.49 4.27"/><polygon class="cls-287" points="278.49 4.16 337.04 33.67 336.99 33.76 278.49 4.27 278.49 4.16"/><polygon class="cls-288" points="278.49 4.04 337.08 33.58 337.04 33.67 278.49 4.16 278.49 4.04"/><polygon class="cls-289" points="278.49 3.92 337.13 33.49 337.08 33.58 278.49 4.04 278.49 3.92"/><polygon class="cls-290" points="278.49 3.81 337.18 33.39 337.13 33.49 278.49 3.92 278.49 3.81"/><polygon class="cls-291" points="278.49 3.69 337.22 33.3 337.18 33.39 278.49 3.81 278.49 3.69"/><polygon class="cls-292" points="278.49 3.57 337.27 33.21 337.22 33.3 278.49 3.69 278.49 3.57"/><polygon class="cls-293" points="278.49 3.46 337.32 33.12 337.27 33.21 278.49 3.57 278.49 3.46"/><polygon class="cls-294" points="278.49 3.34 337.36 33.02 337.32 33.12 278.49 3.46 278.49 3.34"/><polygon class="cls-295" points="278.49 3.23 337.41 32.93 337.36 33.02 278.49 3.34 278.49 3.23"/><polygon class="cls-296" points="278.49 3.11 337.46 32.84 337.41 32.93 278.49 3.23 278.49 3.11"/><polygon class="cls-297" points="278.49 2.99 337.5 32.74 337.46 32.84 278.49 3.11 278.49 2.99"/><polygon class="cls-298" points="278.49 2.88 337.55 32.65 337.5 32.74 278.49 2.99 278.49 2.88"/><polygon class="cls-299" points="278.49 2.76 337.6 32.56 337.55 32.65 278.49 2.88 278.49 2.76"/><polygon class="cls-300" points="278.49 2.64 337.64 32.47 337.6 32.56 278.49 2.76 278.49 2.64"/><polygon class="cls-301" points="278.49 2.53 337.69 32.37 337.64 32.47 278.49 2.64 278.49 2.53"/><polygon class="cls-302" points="278.49 2.41 337.74 32.28 337.69 32.37 278.49 2.53 278.49 2.41"/><polygon class="cls-303" points="278.49 2.29 337.78 32.19 337.74 32.28 278.49 2.41 278.49 2.29"/><polygon class="cls-304" points="278.49 2.18 337.83 32.1 337.78 32.19 278.49 2.29 278.49 2.18"/><polygon class="cls-305" points="278.49 2.06 337.88 32 337.83 32.1 278.49 2.18 278.49 2.06"/><polygon class="cls-306" points="278.49 1.95 337.92 31.91 337.88 32 278.49 2.06 278.49 1.95"/><polygon class="cls-307" points="278.49 1.83 337.97 31.82 337.92 31.91 278.49 1.95 278.49 1.83"/><polygon class="cls-308" points="278.49 1.71 338.02 31.73 337.97 31.82 278.49 1.83 278.49 1.71"/><polygon class="cls-309" points="278.49 1.6 338.06 31.63 338.02 31.73 278.49 1.71 278.49 1.6"/><polygon class="cls-310" points="278.49 1.48 338.11 31.54 338.06 31.63 278.49 1.6 278.49 1.48"/><polygon class="cls-311" points="278.49 1.37 338.16 31.45 338.11 31.54 278.49 1.48 278.49 1.37"/><polygon class="cls-312" points="278.49 1.25 338.2 31.36 338.16 31.45 278.49 1.37 278.49 1.25"/><polygon class="cls-313" points="278.49 1.13 338.25 31.26 338.2 31.36 278.49 1.25 278.49 1.13"/><polygon class="cls-314" points="278.49 1.02 338.3 31.17 338.25 31.26 278.49 1.13 278.49 1.02"/><polygon class="cls-315" points="278.49 0.9 338.35 31.08 338.3 31.17 278.49 1.02 278.49 0.9"/><polygon class="cls-316" points="278.49 0.79 338.39 30.98 338.35 31.08 278.49 0.9 278.49 0.79"/><polygon class="cls-317" points="278.49 0.67 338.44 30.89 338.39 30.98 278.49 0.79 278.49 0.67"/><polygon class="cls-318" points="278.49 0.55 338.49 30.8 338.44 30.89 278.49 0.67 278.49 0.55"/><polygon class="cls-319" points="278.6 0.49 338.53 30.71 338.49 30.8 278.49 0.55 278.49 0.49 278.6 0.49"/><polygon class="cls-320" points="278.83 0.49 338.58 30.61 338.53 30.71 278.6 0.49 278.83 0.49"/><polygon class="cls-321" points="279.06 0.49 338.63 30.52 338.58 30.61 278.83 0.49 279.06 0.49"/><polygon class="cls-322" points="279.29 0.49 338.67 30.43 338.63 30.52 279.06 0.49 279.29 0.49"/><polygon class="cls-323" points="279.52 0.49 338.72 30.34 338.67 30.43 279.29 0.49 279.52 0.49"/><polygon class="cls-324" points="279.75 0.49 338.76 30.24 338.72 30.34 279.52 0.49 279.75 0.49"/><polygon class="cls-325" points="279.98 0.49 338.81 30.15 338.76 30.24 279.75 0.49 279.98 0.49"/><polygon class="cls-326" points="280.21 0.49 338.86 30.06 338.81 30.15 279.98 0.49 280.21 0.49"/><polygon class="cls-327" points="280.44 0.49 338.9 29.96 338.86 30.06 280.21 0.49 280.44 0.49"/><polygon class="cls-328" points="280.67 0.49 338.95 29.87 338.9 29.96 280.44 0.49 280.67 0.49"/><polygon class="cls-329" points="280.9 0.49 339 29.78 338.95 29.87 280.67 0.49 280.9 0.49"/><polygon class="cls-330" points="281.13 0.49 339.05 29.69 339 29.78 280.9 0.49 281.13 0.49"/><polygon class="cls-331" points="281.36 0.49 339.09 29.59 339.05 29.69 281.13 0.49 281.36 0.49"/><polygon class="cls-332" points="281.6 0.49 339.14 29.5 339.09 29.59 281.36 0.49 281.6 0.49"/><polygon class="cls-333" points="281.82 0.49 339.19 29.41 339.14 29.5 281.6 0.49 281.82 0.49"/><polygon class="cls-334" points="282.06 0.49 339.23 29.32 339.19 29.41 281.82 0.49 282.06 0.49"/><polygon class="cls-335" points="282.29 0.49 339.28 29.22 339.23 29.32 282.06 0.49 282.29 0.49"/><polygon class="cls-336" points="282.52 0.49 339.33 29.13 339.28 29.22 282.29 0.49 282.52 0.49"/><polygon class="cls-337" points="282.75 0.49 339.37 29.04 339.33 29.13 282.52 0.49 282.75 0.49"/><polygon class="cls-338" points="282.98 0.49 339.42 28.95 339.37 29.04 282.75 0.49 282.98 0.49"/><polygon class="cls-339" points="283.21 0.49 339.47 28.85 339.42 28.95 282.98 0.49 283.21 0.49"/><polygon class="cls-340" points="283.44 0.49 339.51 28.76 339.47 28.85 283.21 0.49 283.44 0.49"/><polygon class="cls-341" points="283.67 0.49 339.56 28.67 339.51 28.76 283.44 0.49 283.67 0.49"/><polygon class="cls-342" points="283.9 0.49 339.61 28.57 339.56 28.67 283.67 0.49 283.9 0.49"/><polygon class="cls-343" points="284.13 0.49 339.65 28.48 339.61 28.57 283.9 0.49 284.13 0.49"/><polygon class="cls-344" points="284.36 0.49 339.7 28.39 339.65 28.48 284.13 0.49 284.36 0.49"/><polygon class="cls-345" points="284.59 0.49 339.75 28.3 339.7 28.39 284.36 0.49 284.59 0.49"/><polygon class="cls-346" points="284.82 0.49 339.79 28.2 339.75 28.3 284.59 0.49 284.82 0.49"/><polygon class="cls-347" points="285.05 0.49 339.84 28.11 339.79 28.2 284.82 0.49 285.05 0.49"/><polygon class="cls-348" points="285.28 0.49 339.89 28.02 339.84 28.11 285.05 0.49 285.28 0.49"/><polygon class="cls-349" points="285.51 0.49 339.93 27.93 339.89 28.02 285.28 0.49 285.51 0.49"/><polygon class="cls-350" points="285.74 0.49 339.98 27.83 339.93 27.93 285.51 0.49 285.74 0.49"/><polygon class="cls-351" points="285.98 0.49 340.03 27.74 339.98 27.83 285.74 0.49 285.98 0.49"/><polygon class="cls-352" points="286.2 0.49 340.07 27.65 340.03 27.74 285.98 0.49 286.2 0.49"/><polygon class="cls-353" points="286.44 0.49 340.12 27.56 340.07 27.65 286.2 0.49 286.44 0.49"/><polygon class="cls-354" points="286.67 0.49 340.17 27.46 340.12 27.56 286.44 0.49 286.67 0.49"/><polygon class="cls-355" points="286.9 0.49 340.21 27.37 340.17 27.46 286.67 0.49 286.9 0.49"/><polygon class="cls-356" points="287.13 0.49 340.26 27.28 340.21 27.37 286.9 0.49 287.13 0.49"/><polygon class="cls-357" points="287.36 0.49 340.31 27.18 340.26 27.28 287.13 0.49 287.36 0.49"/><polygon class="cls-358" points="287.59 0.49 340.35 27.09 340.31 27.18 287.36 0.49 287.59 0.49"/><polygon class="cls-359" points="287.82 0.49 340.4 27 340.35 27.09 287.59 0.49 287.82 0.49"/><polygon class="cls-360" points="288.05 0.49 340.45 26.91 340.4 27 287.82 0.49 288.05 0.49"/><polygon class="cls-361" points="288.28 0.49 340.49 26.81 340.45 26.91 288.05 0.49 288.28 0.49"/><polygon class="cls-362" points="288.51 0.49 340.54 26.72 340.49 26.81 288.28 0.49 288.51 0.49"/><polygon class="cls-363" points="288.74 0.49 340.59 26.63 340.54 26.72 288.51 0.49 288.74 0.49"/><polygon class="cls-364" points="288.97 0.49 340.63 26.54 340.59 26.63 288.74 0.49 288.97 0.49"/><polygon class="cls-365" points="289.2 0.49 340.68 26.44 340.63 26.54 288.97 0.49 289.2 0.49"/><polygon class="cls-366" points="289.43 0.49 340.73 26.35 340.68 26.44 289.2 0.49 289.43 0.49"/><polygon class="cls-367" points="289.66 0.49 340.77 26.26 340.73 26.35 289.43 0.49 289.66 0.49"/><polygon class="cls-368" points="289.89 0.49 340.82 26.17 340.77 26.26 289.66 0.49 289.89 0.49"/><polygon class="cls-369" points="290.12 0.49 340.87 26.07 340.82 26.17 289.89 0.49 290.12 0.49"/><polygon class="cls-370" points="290.36 0.49 340.91 25.98 340.87 26.07 290.12 0.49 290.36 0.49"/><polygon class="cls-371" points="290.58 0.49 340.96 25.89 340.91 25.98 290.36 0.49 290.58 0.49"/><polygon class="cls-372" points="290.82 0.49 341.01 25.8 340.96 25.89 290.58 0.49 290.82 0.49"/><polygon class="cls-373" points="291.05 0.49 341.05 25.7 341.01 25.8 290.82 0.49 291.05 0.49"/><polygon class="cls-374" points="291.28 0.49 341.1 25.61 341.05 25.7 291.05 0.49 291.28 0.49"/><polygon class="cls-375" points="291.51 0.49 341.15 25.52 341.1 25.61 291.28 0.49 291.51 0.49"/><polygon class="cls-376" points="291.74 0.49 341.19 25.42 341.15 25.52 291.51 0.49 291.74 0.49"/><polygon class="cls-377" points="291.97 0.49 341.24 25.33 341.19 25.42 291.74 0.49 291.97 0.49"/><polygon class="cls-378" points="292.2 0.49 341.29 25.24 341.24 25.33 291.97 0.49 292.2 0.49"/><polygon class="cls-379" points="292.43 0.49 341.33 25.15 341.29 25.24 292.2 0.49 292.43 0.49"/><polygon class="cls-380" points="292.66 0.49 341.38 25.05 341.33 25.15 292.43 0.49 292.66 0.49"/><polygon class="cls-381" points="292.89 0.49 341.43 24.96 341.38 25.05 292.66 0.49 292.89 0.49"/><polygon class="cls-382" points="293.12 0.49 341.48 24.87 341.43 24.96 292.89 0.49 293.12 0.49"/><polygon class="cls-383" points="293.35 0.49 341.52 24.78 341.48 24.87 293.12 0.49 293.35 0.49"/><polygon class="cls-384" points="293.58 0.49 341.57 24.68 341.52 24.78 293.35 0.49 293.58 0.49"/><polygon class="cls-385" points="293.81 0.49 341.62 24.59 341.57 24.68 293.58 0.49 293.81 0.49"/><polygon class="cls-386" points="294.04 0.49 341.66 24.5 341.62 24.59 293.81 0.49 294.04 0.49"/><polygon class="cls-387" points="294.27 0.49 341.71 24.41 341.66 24.5 294.04 0.49 294.27 0.49"/><polygon class="cls-388" points="294.5 0.49 341.75 24.31 341.71 24.41 294.27 0.49 294.5 0.49"/><polygon class="cls-389" points="294.74 0.49 341.8 24.22 341.75 24.31 294.5 0.49 294.74 0.49"/><polygon class="cls-390" points="294.96 0.49 341.85 24.13 341.8 24.22 294.74 0.49 294.96 0.49"/><polygon class="cls-391" points="295.2 0.49 341.89 24.04 341.85 24.13 294.96 0.49 295.2 0.49"/><polygon class="cls-392" points="295.43 0.49 341.94 23.94 341.89 24.04 295.2 0.49 295.43 0.49"/><polygon class="cls-393" points="295.66 0.49 341.99 23.85 341.94 23.94 295.43 0.49 295.66 0.49"/><polygon class="cls-394" points="295.89 0.49 342.04 23.76 341.99 23.85 295.66 0.49 295.89 0.49"/><polygon class="cls-395" points="296.12 0.49 342.08 23.66 342.04 23.76 295.89 0.49 296.12 0.49"/><polygon class="cls-396" points="296.35 0.49 342.13 23.57 342.08 23.66 296.12 0.49 296.35 0.49"/><polygon class="cls-397" points="296.58 0.49 342.18 23.48 342.13 23.57 296.35 0.49 296.58 0.49"/><polygon class="cls-398" points="296.81 0.49 342.22 23.39 342.18 23.48 296.58 0.49 296.81 0.49"/><polygon class="cls-399" points="297.04 0.49 342.27 23.29 342.22 23.39 296.81 0.49 297.04 0.49"/><polygon class="cls-400" points="297.27 0.49 342.32 23.2 342.27 23.29 297.04 0.49 297.27 0.49"/><polygon class="cls-401" points="297.5 0.49 342.36 23.11 342.32 23.2 297.27 0.49 297.5 0.49"/><polygon class="cls-402" points="297.73 0.49 342.41 23.02 342.36 23.11 297.5 0.49 297.73 0.49"/><polygon class="cls-403" points="297.96 0.49 342.46 22.92 342.41 23.02 297.73 0.49 297.96 0.49"/><polygon class="cls-404" points="298.19 0.49 342.5 22.83 342.46 22.92 297.96 0.49 298.19 0.49"/><polygon class="cls-405" points="298.42 0.49 342.55 22.74 342.5 22.83 298.19 0.49 298.42 0.49"/><polygon class="cls-406" points="298.65 0.49 342.6 22.64 342.55 22.74 298.42 0.49 298.65 0.49"/><polygon class="cls-407" points="298.88 0.49 342.64 22.55 342.6 22.64 298.65 0.49 298.88 0.49"/><polygon class="cls-408" points="299.11 0.49 342.69 22.46 342.64 22.55 298.88 0.49 299.11 0.49"/><polygon class="cls-409" points="299.35 0.49 342.74 22.37 342.69 22.46 299.11 0.49 299.35 0.49"/><polygon class="cls-410" points="299.58 0.49 342.78 22.27 342.74 22.37 299.35 0.49 299.58 0.49"/><polygon class="cls-411" points="299.81 0.49 342.83 22.18 342.78 22.27 299.58 0.49 299.81 0.49"/><polygon class="cls-412" points="300.04 0.49 342.88 22.09 342.83 22.18 299.81 0.49 300.04 0.49"/><polygon class="cls-413" points="300.27 0.49 342.92 22 342.88 22.09 300.04 0.49 300.27 0.49"/><polygon class="cls-414" points="300.5 0.49 342.97 21.9 342.92 22 300.27 0.49 300.5 0.49"/><polygon class="cls-415" points="300.73 0.49 343.02 21.81 342.97 21.9 300.5 0.49 300.73 0.49"/><polygon class="cls-416" points="300.96 0.49 343.06 21.72 343.02 21.81 300.73 0.49 300.96 0.49"/><polygon class="cls-417" points="301.19 0.49 343.11 21.63 343.06 21.72 300.96 0.49 301.19 0.49"/><polygon class="cls-418" points="301.42 0.49 343.16 21.53 343.11 21.63 301.19 0.49 301.42 0.49"/><polygon class="cls-419" points="301.65 0.49 343.2 21.44 343.16 21.53 301.42 0.49 301.65 0.49"/><polygon class="cls-420" points="301.88 0.49 343.25 21.35 343.2 21.44 301.65 0.49 301.88 0.49"/><polygon class="cls-421" points="302.11 0.49 343.3 21.25 343.25 21.35 301.88 0.49 302.11 0.49"/><polygon class="cls-422" points="302.34 0.49 343.34 21.16 343.3 21.25 302.11 0.49 302.34 0.49"/><polygon class="cls-423" points="302.57 0.49 343.39 21.07 343.34 21.16 302.34 0.49 302.57 0.49"/><polygon class="cls-424" points="302.8 0.49 343.44 20.98 343.39 21.07 302.57 0.49 302.8 0.49"/><polygon class="cls-425" points="303.03 0.49 343.48 20.88 343.44 20.98 302.8 0.49 303.03 0.49"/><polygon class="cls-426" points="303.26 0.49 343.53 20.79 343.48 20.88 303.03 0.49 303.26 0.49"/><polygon class="cls-427" points="303.49 0.49 343.58 20.7 343.53 20.79 303.26 0.49 303.49 0.49"/><polygon class="cls-428" points="303.73 0.49 343.62 20.61 343.58 20.7 303.49 0.49 303.73 0.49"/><polygon class="cls-429" points="303.95 0.49 343.67 20.51 343.62 20.61 303.73 0.49 303.95 0.49"/><polygon class="cls-430" points="304.19 0.49 343.72 20.42 343.67 20.51 303.95 0.49 304.19 0.49"/><polygon class="cls-431" points="304.42 0.49 343.76 20.33 343.72 20.42 304.19 0.49 304.42 0.49"/><polygon class="cls-432" points="304.65 0.49 343.81 20.23 343.76 20.33 304.42 0.49 304.65 0.49"/><polygon class="cls-433" points="304.88 0.49 343.86 20.14 343.81 20.23 304.65 0.49 304.88 0.49"/><polygon class="cls-434" points="305.11 0.49 343.9 20.05 343.86 20.14 304.88 0.49 305.11 0.49"/><polygon class="cls-435" points="305.34 0.49 343.95 19.96 343.9 20.05 305.11 0.49 305.34 0.49"/><polygon class="cls-436" points="305.57 0.49 344 19.86 343.95 19.96 305.34 0.49 305.57 0.49"/><polygon class="cls-437" points="305.8 0.49 344.04 19.77 344 19.86 305.57 0.49 305.8 0.49"/><polygon class="cls-438" points="306.03 0.49 344.09 19.68 344.04 19.77 305.8 0.49 306.03 0.49"/><polygon class="cls-439" points="306.26 0.49 344.14 19.59 344.09 19.68 306.03 0.49 306.26 0.49"/><polygon class="cls-440" points="306.49 0.49 344.18 19.49 344.14 19.59 306.26 0.49 306.49 0.49"/><polygon class="cls-441" points="306.72 0.49 344.23 19.4 344.18 19.49 306.49 0.49 306.72 0.49"/><polygon class="cls-442" points="306.95 0.49 344.28 19.31 344.23 19.4 306.72 0.49 306.95 0.49"/><polygon class="cls-443" points="307.18 0.49 344.32 19.22 344.28 19.31 306.95 0.49 307.18 0.49"/><polygon class="cls-444" points="307.41 0.49 344.37 19.12 344.32 19.22 307.18 0.49 307.41 0.49"/><polygon class="cls-445" points="307.64 0.49 344.42 19.03 344.37 19.12 307.41 0.49 307.64 0.49"/><polygon class="cls-446" points="307.87 0.49 344.46 18.94 344.42 19.03 307.64 0.49 307.87 0.49"/><polygon class="cls-447" points="308.11 0.49 344.51 18.84 344.46 18.94 307.87 0.49 308.11 0.49"/><polygon class="cls-448" points="308.33 0.49 344.56 18.75 344.51 18.84 308.11 0.49 308.33 0.49"/><polygon class="cls-449" points="308.57 0.49 344.61 18.66 344.56 18.75 308.33 0.49 308.57 0.49"/><polygon class="cls-450" points="308.8 0.49 344.65 18.57 344.61 18.66 308.57 0.49 308.8 0.49"/><polygon class="cls-451" points="309.03 0.49 344.7 18.48 344.65 18.57 308.8 0.49 309.03 0.49"/><polygon class="cls-452" points="309.26 0.49 344.75 18.38 344.7 18.48 309.03 0.49 309.26 0.49"/><polygon class="cls-453" points="309.49 0.49 344.79 18.29 344.75 18.38 309.26 0.49 309.49 0.49"/><polygon class="cls-454" points="309.72 0.49 344.84 18.2 344.79 18.29 309.49 0.49 309.72 0.49"/><polygon class="cls-455" points="309.95 0.49 344.88 18.1 344.84 18.2 309.72 0.49 309.95 0.49"/><polygon class="cls-456" points="310.18 0.49 344.93 18.01 344.88 18.1 309.95 0.49 310.18 0.49"/><polygon class="cls-457" points="310.41 0.49 344.98 17.92 344.93 18.01 310.18 0.49 310.41 0.49"/><polygon class="cls-458" points="310.64 0.49 345.02 17.83 344.98 17.92 310.41 0.49 310.64 0.49"/><polygon class="cls-459" points="310.87 0.49 345.07 17.73 345.02 17.83 310.64 0.49 310.87 0.49"/><polygon class="cls-460" points="311.1 0.49 345.12 17.64 345.07 17.73 310.87 0.49 311.1 0.49"/><polygon class="cls-461" points="311.33 0.49 345.17 17.55 345.12 17.64 311.1 0.49 311.33 0.49"/><polygon class="cls-462" points="311.56 0.49 345.21 17.45 345.17 17.55 311.33 0.49 311.56 0.49"/><polygon class="cls-463" points="311.79 0.49 345.26 17.36 345.21 17.45 311.56 0.49 311.79 0.49"/><polygon class="cls-464" points="312.02 0.49 345.31 17.27 345.26 17.36 311.79 0.49 312.02 0.49"/><polygon class="cls-465" points="312.25 0.49 345.35 17.18 345.31 17.27 312.02 0.49 312.25 0.49"/><polygon class="cls-466" points="312.49 0.49 345.4 17.09 345.35 17.18 312.25 0.49 312.49 0.49"/><polygon class="cls-467" points="312.71 0.49 345.44 16.99 345.4 17.09 312.49 0.49 312.71 0.49"/><polygon class="cls-468" points="312.95 0.49 345.49 16.9 345.44 16.99 312.71 0.49 312.95 0.49"/><polygon class="cls-469" points="313.18 0.49 345.54 16.81 345.49 16.9 312.95 0.49 313.18 0.49"/><polygon class="cls-470" points="313.41 0.49 345.59 16.71 345.54 16.81 313.18 0.49 313.41 0.49"/><polygon class="cls-471" points="313.64 0.49 345.63 16.62 345.59 16.71 313.41 0.49 313.64 0.49"/><polygon class="cls-472" points="313.87 0.49 345.68 16.53 345.63 16.62 313.64 0.49 313.87 0.49"/><polygon class="cls-473" points="314.1 0.49 345.73 16.44 345.68 16.53 313.87 0.49 314.1 0.49"/><polygon class="cls-474" points="314.33 0.49 345.77 16.34 345.73 16.44 314.1 0.49 314.33 0.49"/><polygon class="cls-475" points="314.56 0.49 345.82 16.25 345.77 16.34 314.33 0.49 314.56 0.49"/><polygon class="cls-476" points="314.79 0.49 345.87 16.16 345.82 16.25 314.56 0.49 314.79 0.49"/><polygon class="cls-477" points="315.02 0.49 345.91 16.07 345.87 16.16 314.79 0.49 315.02 0.49"/><polygon class="cls-478" points="315.25 0.49 345.96 15.97 345.91 16.07 315.02 0.49 315.25 0.49"/><polygon class="cls-479" points="315.48 0.49 346.01 15.88 345.96 15.97 315.25 0.49 315.48 0.49"/><polygon class="cls-480" points="315.71 0.49 346.05 15.79 346.01 15.88 315.48 0.49 315.71 0.49"/><polygon class="cls-481" points="315.94 0.49 346.1 15.7 346.05 15.79 315.71 0.49 315.94 0.49"/><polygon class="cls-482" points="316.17 0.49 346.15 15.6 346.1 15.7 315.94 0.49 316.17 0.49"/><polygon class="cls-483" points="316.4 0.49 346.19 15.51 346.15 15.6 316.17 0.49 316.4 0.49"/><polygon class="cls-484" points="316.63 0.49 346.24 15.42 346.19 15.51 316.4 0.49 316.63 0.49"/><polygon class="cls-485" points="316.87 0.49 346.29 15.32 346.24 15.42 316.63 0.49 316.87 0.49"/><polygon class="cls-486" points="317.1 0.49 346.33 15.23 346.29 15.32 316.87 0.49 317.1 0.49"/><polygon class="cls-487" points="317.33 0.49 346.38 15.14 346.33 15.23 317.1 0.49 317.33 0.49"/><polygon class="cls-488" points="317.56 0.49 346.43 15.05 346.38 15.14 317.33 0.49 317.56 0.49"/><polygon class="cls-489" points="317.79 0.49 346.47 14.95 346.43 15.05 317.56 0.49 317.79 0.49"/><polygon class="cls-490" points="318.02 0.49 346.52 14.86 346.47 14.95 317.79 0.49 318.02 0.49"/><polygon class="cls-491" points="318.25 0.49 346.57 14.77 346.52 14.86 318.02 0.49 318.25 0.49"/><polygon class="cls-492" points="318.48 0.49 346.61 14.68 346.57 14.77 318.25 0.49 318.48 0.49"/><polygon class="cls-492" points="347.25 13.41 346.61 14.68 318.48 0.49 347.25 0.49 347.25 13.41"/></g><path d="M301.62,60.76h-3.84V50.68h3.3V44.77h3.29V38.85h3.29V33.47H294.49V27h3.29v-3h3.3v-3h3.29v-3h3.29v-3H311v-3.9H278.22V.22h69.3V11.28H321.37v7.4h-3.29V24.6h-3.3v5.91h-3.29v2.42h13.17v6.46h-3.29v3h-3.29v3h-3.3v3h-3.29v2.95H308.2v3h-3.29v3h-3.29Zm-3.29-.54h2.75V56.6h3.29v-3h3.29v-3H311v-3h3.29v-3h3.3v-3h3.29v-3h3.29V33.47H311V30h3.29V24.06h3.3V18.14h3.29v-7.4H347V.76H278.76v10h32.73v5H308.2v3h-3.29v3h-3.29v3h-3.29v2.95H295v5.38H308.2v6.46h-3.29v5.92h-3.29v5.91h-3.29Z"/></g></g></svg>